<svg width="16" height="16" viewBox="0 0 16 16" fill="none" xmlns="http://www.w3.org/2000/svg">
<path d="M14.5099 0.589999H15.1399C15.1399 0.613999 15.1819 0.661999 15.2659 0.733999C15.3499 0.806 15.3919 0.86 15.3919 0.895999V0.913999C15.2119 1.682 15.0979 2.234 15.0499 2.57C15.0019 2.906 14.9779 3.134 14.9779 3.254C14.9779 3.29 14.9779 3.32 14.9779 3.344C14.9899 3.356 14.9959 3.368 14.9959 3.38C14.9959 3.38 14.9419 3.434 14.8339 3.542C14.7379 3.638 14.6239 3.752 14.4919 3.884C14.3599 4.004 14.2339 4.118 14.1139 4.226C14.0059 4.334 13.9459 4.388 13.9339 4.388L13.8079 4.442H12.0259V5.774C12.0139 5.81 12.1159 5.834 12.3319 5.846C12.5599 5.846 12.8299 5.846 13.1419 5.846C13.4659 5.846 13.8019 5.852 14.1499 5.864C14.4979 5.864 14.7859 5.876 15.0139 5.9C15.0979 5.9 15.1459 5.948 15.1579 6.044C15.1819 6.128 15.1939 6.23 15.1939 6.35C15.1939 6.41 15.1819 6.566 15.1579 6.818C15.1339 7.07 15.1039 7.34 15.0679 7.628C15.0439 7.904 15.0199 8.156 14.9959 8.384C14.9719 8.612 14.9539 8.732 14.9419 8.744L13.8079 9.878H12.3499C12.3499 10.598 12.3439 11.228 12.3319 11.768C12.3199 12.296 12.3019 12.74 12.2779 13.1C12.2539 13.52 12.2359 13.886 12.2239 14.198V14.18C12.2239 14.264 12.1699 14.384 12.0619 14.54C11.9539 14.696 11.8219 14.846 11.6659 14.99C11.5099 15.146 11.3419 15.278 11.1619 15.386C10.9819 15.506 10.8259 15.566 10.6939 15.566C10.4899 15.566 10.2679 15.554 10.0279 15.53C9.78788 15.518 9.56588 15.5 9.36188 15.476C9.16988 15.452 9.00788 15.428 8.87588 15.404C8.74388 15.392 8.67788 15.38 8.67788 15.368C8.25788 15.308 7.83188 15.254 7.39988 15.206C7.02788 15.158 6.61388 15.116 6.15788 15.08C5.70188 15.044 5.26388 15.026 4.84388 15.026C4.45988 15.026 4.09988 15.044 3.76388 15.08C3.43988 15.128 3.18788 15.206 3.00788 15.314C3.21188 14.93 3.45188 14.63 3.72788 14.414C4.00388 14.198 4.26788 14.024 4.51988 13.892C4.81988 13.76 5.11988 13.658 5.41988 13.586C5.20388 13.526 4.96388 13.472 4.69988 13.424C4.47188 13.388 4.20788 13.352 3.90788 13.316C3.60788 13.28 3.28988 13.262 2.95388 13.262C2.66588 13.262 2.36588 13.28 2.05388 13.316C1.75388 13.34 1.45388 13.4 1.15388 13.496C1.29788 13.172 1.56188 12.908 1.94588 12.704C2.32988 12.488 2.72588 12.314 3.13388 12.182C3.61388 12.038 4.12388 11.924 4.66388 11.84C4.54388 11.612 4.33388 11.42 4.03388 11.264C3.74588 11.096 3.47588 10.982 3.22388 10.922C3.09188 10.886 2.90588 10.838 2.66588 10.778C2.43788 10.718 2.19788 10.616 1.94588 10.472C1.70588 10.316 1.47188 10.112 1.24388 9.86C1.02788 9.608 0.877883 9.272 0.793883 8.852C1.12988 9.032 1.40588 9.182 1.62188 9.302C1.83788 9.41 2.01788 9.494 2.16188 9.554C2.30588 9.614 2.42588 9.656 2.52188 9.68C2.61788 9.692 2.71988 9.698 2.82788 9.698C2.92388 9.698 2.98988 9.68 3.02588 9.644C3.06188 9.596 3.07988 9.542 3.07988 9.482C3.07988 9.41 3.06788 9.338 3.04388 9.266C3.01988 9.194 2.96588 9.128 2.88188 9.068C2.80988 9.008 2.70188 8.96 2.55788 8.924C2.42588 8.888 2.24588 8.87 2.01788 8.87C2.22188 8.546 2.48588 8.312 2.80988 8.168C3.14588 8.024 3.54188 7.952 3.99788 7.952C4.36988 7.952 4.77188 7.988 5.20388 8.06C5.09588 7.868 4.93388 7.7 4.71788 7.556C4.52588 7.424 4.25588 7.304 3.90788 7.196C3.55988 7.088 3.09788 7.034 2.52188 7.034C2.34188 7.034 2.14988 7.046 1.94588 7.07C1.75388 7.082 1.53788 7.1 1.29788 7.124C1.41788 6.908 1.60388 6.734 1.85588 6.602C2.10788 6.47 2.35988 6.368 2.61188 6.296C2.86388 6.212 3.09188 6.158 3.29588 6.134C3.49988 6.098 3.61988 6.08 3.65588 6.08C3.40388 5.648 3.10388 5.318 2.75588 5.09C2.40788 4.85 2.07788 4.676 1.76588 4.568C1.39388 4.436 1.01588 4.364 0.631883 4.352C0.847883 4.256 1.07588 4.172 1.31588 4.1C1.51988 4.04 1.75988 3.986 2.03588 3.938C2.32388 3.878 2.62988 3.848 2.95388 3.848C3.34988 3.848 3.75788 3.902 4.17788 4.01C4.60988 4.118 5.02388 4.328 5.41988 4.64C5.69588 4.64 5.89388 4.586 6.01388 4.478C6.13388 4.37 6.19388 4.25 6.19388 4.118C6.19388 4.01 6.16988 3.908 6.12188 3.812C6.07388 3.704 5.97788 3.614 5.83388 3.542C5.70188 3.47 5.50388 3.41 5.23988 3.362C4.98788 3.314 4.64588 3.29 4.21388 3.29C3.80588 3.29 3.43388 3.236 3.09788 3.128C2.76188 3.008 2.46788 2.822 2.21588 2.57C1.97588 2.318 1.78388 1.994 1.63988 1.598C1.50788 1.202 1.43588 0.721999 1.42388 0.157999C1.98788 0.625999 2.57588 0.944 3.18788 1.112C3.81188 1.268 4.39988 1.346 4.95188 1.346C5.46788 1.346 5.88788 1.322 6.21188 1.274C6.54788 1.214 6.82388 1.154 7.03988 1.094C7.26788 1.022 7.46588 0.961999 7.63388 0.913999C7.81388 0.853999 8.01188 0.823999 8.22788 0.823999C8.43188 0.823999 8.64188 0.835999 8.85788 0.86C9.08588 0.872 9.34388 0.889999 9.63188 0.913999L14.5099 0.589999ZM10.0639 13.928C10.0639 13.928 10.1119 13.934 10.2079 13.946C10.3159 13.946 10.4479 13.952 10.6039 13.964C10.7599 13.964 10.9279 13.97 11.1079 13.982C11.2879 13.982 11.4499 13.982 11.5939 13.982C11.5939 13.862 11.6119 13.628 11.6479 13.28C11.6959 12.92 11.7199 12.542 11.7199 12.146C11.7199 11.834 11.7139 11.504 11.7019 11.156C11.7019 10.796 11.6959 10.46 11.6839 10.148C11.6719 9.836 11.6599 9.56 11.6479 9.32C11.6479 9.08 11.6479 8.912 11.6479 8.816C11.6479 8.54 11.6719 8.384 11.7199 8.348C11.7799 8.312 11.8639 8.294 11.9719 8.294C12.4159 8.294 12.8479 8.306 13.2679 8.33C13.6879 8.354 14.0359 8.366 14.3119 8.366C14.3479 8.234 14.3839 8.072 14.4199 7.88C14.4559 7.676 14.4859 7.478 14.5099 7.286C14.5339 7.082 14.5519 6.908 14.5639 6.764C14.5759 6.608 14.5759 6.512 14.5639 6.476H12.2779C11.9419 6.476 11.7079 6.44 11.5759 6.368C11.4559 6.296 11.3959 6.164 11.3959 5.972C11.3959 5.876 11.3899 5.702 11.3779 5.45C11.3779 5.186 11.3719 4.91 11.3599 4.622C11.3599 4.322 11.3539 4.046 11.3419 3.794C11.3419 3.53 11.3419 3.35 11.3419 3.254C11.3419 3.11 11.3479 3.026 11.3599 3.002C11.3839 2.978 11.4199 2.954 11.4679 2.93H14.3839C14.3959 2.882 14.4139 2.768 14.4379 2.588C14.4739 2.408 14.5039 2.222 14.5279 2.03C14.5639 1.838 14.5879 1.664 14.5999 1.508C14.6239 1.34 14.6359 1.244 14.6359 1.22L9.75788 1.544L9.55988 1.598L10.0459 13.532L10.0639 13.928Z" fill="#F63C3C"/>
</svg>
