<svg version="1.2" baseProfile="tiny-ps" xmlns="http://www.w3.org/2000/svg" viewBox="0 0 1200 800" width="1200" height="800">
	<title>19199681-ai</title>
	<defs>
		<linearGradient id="grd1" gradientUnits="userSpaceOnUse"  x1="-178.4" y1="530.7" x2="801.3" y2="-175.6">
			<stop offset="0" stop-color="#b37cff"  />
			<stop offset="1" stop-color="#f895e7"  />
		</linearGradient>
		<linearGradient id="grd2" gradientUnits="userSpaceOnUse"  x1="1245.8" y1="436.7" x2="515.8" y2="972.4">
			<stop offset="0" stop-color="#b37cff"  />
			<stop offset="1" stop-color="#f895e7"  />
		</linearGradient>
		<linearGradient id="grd3" gradientUnits="userSpaceOnUse"  x1="277.7" y1="132.3" x2="458.9" y2="166.8">
			<stop offset="0" stop-color="#b37cff"  />
			<stop offset="1" stop-color="#f895e7"  />
		</linearGradient>
		<linearGradient id="grd4" gradientUnits="userSpaceOnUse"  x1="163.3" y1="228.2" x2="263.4" y2="247.2">
			<stop offset="0" stop-color="#b37cff"  />
			<stop offset="1" stop-color="#f895e7"  />
		</linearGradient>
		<linearGradient id="grd5" gradientUnits="userSpaceOnUse"  x1="6651.6" y1="-2637" x2="6773.5" y2="-2693.6">
			<stop offset="0" stop-color="#2b3582"  />
			<stop offset="1" stop-color="#150e42"  />
		</linearGradient>
		<linearGradient id="grd6" gradientUnits="userSpaceOnUse"  x1="43.9" y1="463.8" x2="428.1" y2="963.1">
			<stop offset="0" stop-color="#b37cff"  />
			<stop offset="1" stop-color="#f895e7"  />
		</linearGradient>
		<linearGradient id="grd7" gradientUnits="userSpaceOnUse"  x1="-2430.4" y1="-9308.9" x2="-2506.3" y2="-9519.6">
			<stop offset="0" stop-color="#2b3582"  />
			<stop offset="1" stop-color="#150e42"  />
		</linearGradient>
		<linearGradient id="grd8" gradientUnits="userSpaceOnUse"  x1="1156.1" y1="459.6" x2="771.9" y2="958.9">
			<stop offset="0" stop-color="#b37cff"  />
			<stop offset="1" stop-color="#f895e7"  />
		</linearGradient>
		<linearGradient id="grd9" gradientUnits="userSpaceOnUse"  x1="168.7" y1="544.2" x2="324.4" y2="76.9">
			<stop offset="0" stop-color="#e40045"  />
			<stop offset="1" stop-color="#5c0e16"  />
		</linearGradient>
		<linearGradient id="grd10" gradientUnits="userSpaceOnUse"  x1="190.9" y1="542.6" x2="337.4" y2="103.3">
			<stop offset="0" stop-color="#9cfffb"  />
			<stop offset="1" stop-color="#9bfffa"  />
		</linearGradient>
		<linearGradient id="grd11" gradientUnits="userSpaceOnUse"  x1="633.1" y1="440" x2="362.4" y2="543">
			<stop offset="0" stop-color="#e92556"  />
			<stop offset="1" stop-color="#f9c342"  />
		</linearGradient>
		<linearGradient id="grd12" gradientUnits="userSpaceOnUse"  x1="355.7" y1="182.8" x2="387.2" y2="182.8">
			<stop offset="0" stop-color="#53d8ff"  />
			<stop offset="1" stop-color="#3840f7"  />
		</linearGradient>
		<linearGradient id="grd13" gradientUnits="userSpaceOnUse"  x1="355.5" y1="183.7" x2="387.2" y2="183.7">
			<stop offset="0" stop-color="#2b3582"  />
			<stop offset="1" stop-color="#150e42"  />
		</linearGradient>
		<linearGradient id="grd14" gradientUnits="userSpaceOnUse"  x1="387" y1="198.9" x2="395.1" y2="254.4">
			<stop offset="0" stop-color="#f9b776"  />
			<stop offset="1" stop-color="#f47960"  />
		</linearGradient>
		<linearGradient id="grd15" gradientUnits="userSpaceOnUse"  x1="304.1" y1="208.7" x2="341.7" y2="208.7">
			<stop offset="0" stop-color="#2b3582"  />
			<stop offset="1" stop-color="#150e42"  />
		</linearGradient>
		<linearGradient id="grd16" gradientUnits="userSpaceOnUse"  x1="302.9" y1="208" x2="339.1" y2="208">
			<stop offset="0" stop-color="#53d8ff"  />
			<stop offset="1" stop-color="#3840f7"  />
		</linearGradient>
		<linearGradient id="grd17" gradientUnits="userSpaceOnUse"  x1="346" y1="204.8" x2="354.2" y2="260.9">
			<stop offset="0" stop-color="#f9b776"  />
			<stop offset="1" stop-color="#f47960"  />
		</linearGradient>
		<linearGradient id="grd18" gradientUnits="userSpaceOnUse"  x1="410.8" y1="176.6" x2="387.9" y2="305">
			<stop offset="0" stop-color="#53d8ff"  />
			<stop offset="1" stop-color="#3840f7"  />
		</linearGradient>
		<linearGradient id="grd19" gradientUnits="userSpaceOnUse"  x1="431.8" y1="217.9" x2="478.1" y2="308.4">
			<stop offset="0" stop-color="#53d8ff"  />
			<stop offset="1" stop-color="#3840f7"  />
		</linearGradient>
		<linearGradient id="grd20" gradientUnits="userSpaceOnUse"  x1="534.6" y1="212.5" x2="547.3" y2="212.5">
			<stop offset="0" stop-color="#f9b776"  />
			<stop offset="1" stop-color="#f47960"  />
		</linearGradient>
		<linearGradient id="grd21" gradientUnits="userSpaceOnUse"  x1="534.7" y1="234.2" x2="550.6" y2="234.2">
			<stop offset="0" stop-color="#f9b776"  />
			<stop offset="1" stop-color="#f47960"  />
		</linearGradient>
		<linearGradient id="grd22" gradientUnits="userSpaceOnUse"  x1="588.1" y1="258" x2="459.5" y2="363.4">
			<stop offset="0" stop-color="#fdf53f"  />
			<stop offset="1" stop-color="#d93c65"  />
		</linearGradient>
		<linearGradient id="grd23" gradientUnits="userSpaceOnUse"  x1="508.8" y1="210.8" x2="530.6" y2="210.8">
			<stop offset="0" stop-color="#f9b776"  />
			<stop offset="1" stop-color="#f47960"  />
		</linearGradient>
		<linearGradient id="grd24" gradientUnits="userSpaceOnUse"  x1="587.5" y1="279" x2="528.2" y2="328.2">
			<stop offset="0" stop-color="#f9b776"  />
			<stop offset="1" stop-color="#f47960"  />
		</linearGradient>
		<linearGradient id="grd25" gradientUnits="userSpaceOnUse"  x1="521.6" y1="226.1" x2="514.4" y2="202.1">
			<stop offset="0" stop-color="#f9b776"  />
			<stop offset="1" stop-color="#f47960"  />
		</linearGradient>
		<linearGradient id="grd26" gradientUnits="userSpaceOnUse"  x1="552.1" y1="173.7" x2="559.1" y2="213.3">
			<stop offset="0" stop-color="#2b3582"  />
			<stop offset="1" stop-color="#150e42"  />
		</linearGradient>
		<linearGradient id="grd27" gradientUnits="userSpaceOnUse"  x1="524.2" y1="226.1" x2="517.6" y2="204.4">
			<stop offset="0" stop-color="#f9b776"  />
			<stop offset="1" stop-color="#f47960"  />
		</linearGradient>
		<linearGradient id="grd28" gradientUnits="userSpaceOnUse"  x1="565.4" y1="247.5" x2="453.4" y2="339.4">
			<stop offset="0" stop-color="#fdf53f"  />
			<stop offset="1" stop-color="#d93c65"  />
		</linearGradient>
		<linearGradient id="grd29" gradientUnits="userSpaceOnUse"  x1="459.3" y1="241.3" x2="528.9" y2="208.2">
			<stop offset="0" stop-color="#fdf53f"  />
			<stop offset="1" stop-color="#d93c65"  />
		</linearGradient>
		<linearGradient id="grd30" gradientUnits="userSpaceOnUse"  x1="470" y1="260.6" x2="505.1" y2="226.7">
			<stop offset="0" stop-color="#fdf53f"  />
			<stop offset="1" stop-color="#d93c65"  />
		</linearGradient>
		<linearGradient id="grd31" gradientUnits="userSpaceOnUse"  x1="577.3" y1="268.1" x2="520.1" y2="315.6">
			<stop offset="0" stop-color="#f9b776"  />
			<stop offset="1" stop-color="#f47960"  />
		</linearGradient>
		<linearGradient id="grd32" gradientUnits="userSpaceOnUse"  x1="517.7" y1="285.5" x2="562.6" y2="300.2">
			<stop offset="0" stop-color="#2b3582"  />
			<stop offset="1" stop-color="#150e42"  />
		</linearGradient>
		<linearGradient id="grd33" gradientUnits="userSpaceOnUse"  x1="548.6" y1="276.2" x2="581.1" y2="310.5">
			<stop offset="0" stop-color="#2b3582"  />
			<stop offset="1" stop-color="#150e42"  />
		</linearGradient>
		<linearGradient id="grd34" gradientUnits="userSpaceOnUse"  x1="598" y1="256.3" x2="611.5" y2="276.7">
			<stop offset="0" stop-color="#53d8ff"  />
			<stop offset="1" stop-color="#3840f7"  />
		</linearGradient>
		<linearGradient id="grd35" gradientUnits="userSpaceOnUse"  x1="615.3" y1="119.2" x2="842.8" y2="119.2">
			<stop offset="0" stop-color="#cb236d"  />
			<stop offset="1" stop-color="#4c246d"  />
		</linearGradient>
		<linearGradient id="grd36" gradientUnits="userSpaceOnUse"  x1="636.1" y1="111.2" x2="579.4" y2="111.7">
			<stop offset="0" stop-color="#53d8ff"  />
			<stop offset="1" stop-color="#3840f7"  />
		</linearGradient>
		<linearGradient id="grd37" gradientUnits="userSpaceOnUse"  x1="598.1" y1="133.5" x2="523.9" y2="110">
			<stop offset="0" stop-color="#53d8ff"  />
			<stop offset="1" stop-color="#3840f7"  />
		</linearGradient>
		<linearGradient id="grd38" gradientUnits="userSpaceOnUse"  x1="632.3" y1="114.4" x2="579.3" y2="114.9">
			<stop offset="0" stop-color="#53d8ff"  />
			<stop offset="1" stop-color="#3840f7"  />
		</linearGradient>
		<linearGradient id="grd39" gradientUnits="userSpaceOnUse"  x1="605.9" y1="99.5" x2="582.8" y2="106.2">
			<stop offset="0" stop-color="#53d8ff"  />
			<stop offset="1" stop-color="#3840f7"  />
		</linearGradient>
		<linearGradient id="grd40" gradientUnits="userSpaceOnUse"  x1="986.3" y1="700.8" x2="966.1" y2="700.8">
			<stop offset="0" stop-color="#2b3582"  />
			<stop offset="1" stop-color="#150e42"  />
		</linearGradient>
		<linearGradient id="grd41" gradientUnits="userSpaceOnUse"  x1="984.3" y1="694" x2="976" y2="694">
			<stop offset="0" stop-color="#f9b776"  />
			<stop offset="1" stop-color="#f47960"  />
		</linearGradient>
		<linearGradient id="grd42" gradientUnits="userSpaceOnUse"  x1="942.7" y1="700.8" x2="911.1" y2="700.8">
			<stop offset="0" stop-color="#2b3582"  />
			<stop offset="1" stop-color="#150e42"  />
		</linearGradient>
		<linearGradient id="grd43" gradientUnits="userSpaceOnUse"  x1="942.3" y1="687.6" x2="934.2" y2="687.6">
			<stop offset="0" stop-color="#f9b776"  />
			<stop offset="1" stop-color="#f47960"  />
		</linearGradient>
		<linearGradient id="grd44" gradientUnits="userSpaceOnUse"  x1="988.4" y1="546.5" x2="933.1" y2="546.5">
			<stop offset="0" stop-color="#2b3582"  />
			<stop offset="1" stop-color="#150e42"  />
		</linearGradient>
		<linearGradient id="grd45" gradientUnits="userSpaceOnUse"  x1="806" y1="565.2" x2="871.5" y2="533.2">
			<stop offset="0" stop-color="#53d8ff"  />
			<stop offset="1" stop-color="#3840f7"  />
		</linearGradient>
		<linearGradient id="grd46" gradientUnits="userSpaceOnUse"  x1="887" y1="425" x2="856.3" y2="425">
			<stop offset="0" stop-color="#f9b776"  />
			<stop offset="1" stop-color="#f47960"  />
		</linearGradient>
		<linearGradient id="grd47" gradientUnits="userSpaceOnUse"  x1="856.8" y1="454.4" x2="873.5" y2="611.9">
			<stop offset="0" stop-color="#53d8ff"  />
			<stop offset="1" stop-color="#3840f7"  />
		</linearGradient>
		<linearGradient id="grd48" gradientUnits="userSpaceOnUse"  x1="798.8" y1="462.9" x2="874" y2="556.4">
			<stop offset="0" stop-color="#f9b776"  />
			<stop offset="1" stop-color="#f47960"  />
		</linearGradient>
		<linearGradient id="grd49" gradientUnits="userSpaceOnUse"  x1="799" y1="496.4" x2="838.8" y2="545.8">
			<stop offset="0" stop-color="#f9b776"  />
			<stop offset="1" stop-color="#f47960"  />
		</linearGradient>
		<linearGradient id="grd50" gradientUnits="userSpaceOnUse"  x1="880.9" y1="419.4" x2="943.8" y2="535.1">
			<stop offset="0" stop-color="#f9b776"  />
			<stop offset="1" stop-color="#f47960"  />
		</linearGradient>
		<linearGradient id="grd51" gradientUnits="userSpaceOnUse"  x1="898.5" y1="437.1" x2="899.9" y2="479.2">
			<stop offset="0" stop-color="#f9b776"  />
			<stop offset="1" stop-color="#f47960"  />
		</linearGradient>
		<linearGradient id="grd52" gradientUnits="userSpaceOnUse"  x1="937.5" y1="434.5" x2="911" y2="415.9">
			<stop offset="0" stop-color="#2b3582"  />
			<stop offset="1" stop-color="#150e42"  />
		</linearGradient>
		<linearGradient id="grd53" gradientUnits="userSpaceOnUse"  x1="934.4" y1="474" x2="930.3" y2="448.6">
			<stop offset="0" stop-color="#f9b776"  />
			<stop offset="1" stop-color="#f47960"  />
		</linearGradient>
		<linearGradient id="grd54" gradientUnits="userSpaceOnUse"  x1="714.4" y1="724.9" x2="927.3" y2="415.9">
			<stop offset="0" stop-color="#e92556"  />
			<stop offset="1" stop-color="#f9c342"  />
		</linearGradient>
	</defs>
	<style>
		tspan { white-space:pre }
		.s0 { opacity: .3;fill: url(#grd1) } 
		.s1 { opacity: .2;fill: url(#grd2) } 
		.s2 { opacity: .4;fill: url(#grd3) } 
		.s3 { opacity: .4;fill: url(#grd4) } 
		.s4 { fill: url(#grd5) } 
		.s5 { fill: #ffffff } 
		.s6 { fill: url(#grd6) } 
		.s7 { fill: url(#grd7) } 
		.s8 { fill: url(#grd8) } 
		.s9 { fill: url(#grd9) } 
		.s10 { fill: url(#grd10) } 
		.s11 { fill: url(#grd11) } 
		.s12 { opacity: .8;fill: #ffffff } 
		.s13 { opacity: .6;fill: #ffffff } 
		.s14 { fill: url(#grd12) } 
		.s15 { fill: url(#grd13) } 
		.s16 { fill: url(#grd14) } 
		.s17 { fill: url(#grd15) } 
		.s18 { fill: url(#grd16) } 
		.s19 { fill: url(#grd17) } 
		.s20 { fill: url(#grd18) } 
		.s21 { fill: url(#grd19) } 
		.s22 { fill: url(#grd20) } 
		.s23 { fill: url(#grd21) } 
		.s24 { fill: url(#grd22) } 
		.s25 { fill: url(#grd23) } 
		.s26 { fill: url(#grd24) } 
		.s27 { fill: url(#grd25) } 
		.s28 { fill: url(#grd26) } 
		.s29 { fill: url(#grd27) } 
		.s30 { fill: url(#grd28) } 
		.s31 { fill: url(#grd29) } 
		.s32 { fill: url(#grd30) } 
		.s33 { fill: url(#grd31) } 
		.s34 { fill: url(#grd32) } 
		.s35 { fill: url(#grd33) } 
		.s36 { fill: url(#grd34) } 
		.s37 { opacity: .2;fill: #ffffff } 
		.s38 { opacity: .5;fill: #ffffff } 
		.s39 { fill: url(#grd35) } 
		.s40 { fill: url(#grd36) } 
		.s41 { fill: url(#grd37) } 
		.s42 { fill: url(#grd38) } 
		.s43 { fill: url(#grd39) } 
		.s44 { fill: #e992ec } 
		.s45 { fill: url(#grd40) } 
		.s46 { fill: url(#grd41) } 
		.s47 { fill: url(#grd42) } 
		.s48 { fill: url(#grd43) } 
		.s49 { fill: url(#grd44) } 
		.s50 { fill: #666694 } 
		.s51 { fill: url(#grd45) } 
		.s52 { fill: url(#grd46) } 
		.s53 { fill: url(#grd47) } 
		.s54 { fill: url(#grd48) } 
		.s55 { fill: url(#grd49) } 
		.s56 { fill: url(#grd50) } 
		.s57 { fill: url(#grd51) } 
		.s58 { fill: url(#grd52) } 
		.s59 { fill: url(#grd53) } 
		.s60 { fill: url(#grd54) } 
	</style>
	<g id="illustration">
		<g id="&lt;Group&gt;">
			<g id="&lt;Group&gt;">
				<path id="&lt;Path&gt;" class="s0" d="m1001.21 643.09c-26.35 57.09-68.78 56.91-118.79 55.95c-68.1-1.3-134.5-17.36-201.81-27.93c-78.55-12.33-158.18-30.03-237.61-31.03c-41.74-0.53-76.89 1.7-112.35 29.31c-29.12 22.68-93.18 29.25-127.8 28.56c-54.38-1.09-105.68-56.62-93.23-121.36c10.37-53.94 53.77-86.86 75.44-133.74c20.33-43.98 2.8-87.85 15.54-132.67c15.72-55.29 58.64-105.4 107.79-119.22c13.11-3.68 27.16-5.07 42.23-3.84c48.92 3.99 95.09 27.92 144.48 29.4c90.7 2.72 155.07-61.83 236.21-94.63c81.17-32.82 176.8-25.07 239.73 50.31c26.03 31.19 10.25 51.39 11.64 88.28c2.13 56.78 57.41 76.4 83.85 113.98c55.44 78.82-33.83 200.39-65.32 268.63z" />
				<path id="&lt;Path&gt;" class="s1" d="m970.07 624.92c-24.41 50.69-63.66 50.55-109.93 49.72c-63-1.13-124.43-15.35-186.7-24.7c-72.67-10.91-146.34-26.59-219.83-27.44c-38.62-0.45-71.14 1.54-103.96 26.07c-26.95 20.15-86.23 26.01-118.25 25.41c-50.31-0.94-97.75-50.22-86.2-107.7c9.62-47.89 49.79-77.13 69.86-118.76c18.83-39.05 2.64-77.99 14.44-117.78c14.57-49.09 54.3-93.6 99.78-105.88c12.13-3.28 25.13-4.52 39.08-3.43c45.26 3.52 87.97 24.74 133.66 26.03c83.91 2.38 143.5-54.96 218.59-84.12c75.11-29.17 163.59-22.34 221.77 44.55c24.07 27.67 9.46 45.61 10.73 78.36c1.94 50.4 53.08 67.8 77.52 101.15c51.26 69.94-31.39 177.91-60.56 238.5z" />
			</g>
			<g id="&lt;Group&gt;">
				<path id="&lt;Path&gt;" class="s2" d="m274.46 184.97c-2.06-17.58 17.96-42.39 54.17-20.47c0.99-8.32 46.42-34.23 67.46 20.26c3.6-13.22 36.57-6.59 42.5 15.75c12.39-5.51 42.2 22.17 2.75 26.95c-50.38 6.1-165.8 4.34-186.49-25.89c-13.8-20.15-7.26-25.68 19.61-16.59z" />
				<path id="&lt;Path&gt;" class="s3" d="m161.29 257.8c-1.14-9.72 9.93-23.43 29.94-11.32c0.55-4.6 25.66-18.92 37.29 11.2c1.99-7.3 20.21-3.64 23.49 8.7c6.85-3.05 23.33 12.25 1.52 14.89c-27.84 3.37-91.64 2.4-103.08-14.31c-7.63-11.14-4.01-14.2 10.84-9.17z" />
			</g>
			<g id="&lt;Group&gt;">
				<g id="&lt;Group&gt;">
					<path id="&lt;Path&gt;" class="s4" d="m251.27 437.84c1.3 8.67 6.72 16.17 14.55 20.11c3.9 1.96 7.55 4.58 10.79 7.86c7.37 7.47 11.29 17.04 11.79 26.75c0.68 13.23 6.78 25.6 16.87 34.19c1.03 0.88 2.03 1.81 3 2.79c18.1 18.35 17.91 47.9-0.44 66c-18.35 18.1-47.9 17.91-66-0.44c-10.6-10.74-14.92-25.32-13.01-39.19c1.64-11.86-2.32-23.81-10.74-32.34l0 0c-8.62-8.73-12.52-20.34-11.75-31.69c0.68-9.87-2.91-19.56-9.86-26.6c0 0 0 0 0 0c-12.5-12.67-12.36-33.07 0.3-45.57c12.67-12.5 33.07-12.36 45.57 0.3c4.98 5.05 7.95 11.32 8.93 17.83z" />
					<path id="&lt;Path&gt;" class="s5" d="m221.95 441.48c7.45 11.65 14.04 23.73 20.3 36c1.55 3.07 3.13 6.14 4.59 9.25c1.47 3.11 3.03 6.18 4.43 9.33l4.28 9.4l4.08 9.49c5.3 12.71 10.33 25.54 14.72 38.6c2.32 6.49 4.3 13.09 6.37 19.66c1.07 3.28 1.95 6.61 2.89 9.92l2.79 9.95c0.27 0.95-0.29 1.94-1.24 2.21c-0.95 0.27-1.94-0.29-2.21-1.24l0-0.02l-0.01-0.05l-2.68-9.92c-0.91-3.3-1.74-6.63-2.78-9.89c-1.99-6.55-3.9-13.13-6.14-19.61c-4.23-13.03-9.12-25.85-14.27-38.55l-3.97-9.49l-4.17-9.4c-1.36-3.15-2.89-6.22-4.32-9.33c-1.43-3.12-2.97-6.18-4.48-9.25c-6.1-12.26-12.59-24.4-19.83-35.98l-0.02-0.03c-0.29-0.47-0.15-1.08 0.32-1.38c0.47-0.29 1.08-0.15 1.37 0.31z" />
					<path id="&lt;Path&gt;" class="s5" d="m233.82 469.22c-10.05 0-25.8-9.07-26.51-9.48c-0.48-0.28-0.64-0.89-0.36-1.37c0.28-0.48 0.89-0.64 1.37-0.36c0.18 0.1 18.08 10.42 27.19 9.1c0.56-0.08 1.05 0.3 1.13 0.85c0.08 0.55-0.3 1.05-0.85 1.13c-0.63 0.09-1.29 0.13-1.97 0.13z" />
					<path id="&lt;Path&gt;" class="s5" d="m236.1 468.65c-0.14 0-0.29-0.03-0.43-0.1c-0.5-0.24-0.71-0.83-0.47-1.33c0.06-0.13 5.95-12.67 5.79-23.71c-0.01-0.55 0.43-1.01 0.99-1.01c0.55 0.01 1.01 0.43 1.01 0.99c0.17 11.52-5.74 24.07-5.99 24.6c-0.17 0.36-0.53 0.57-0.9 0.57z" />
					<path id="&lt;Path&gt;" class="s5" d="m256.5 513.03c-0.01 0-0.02 0-0.02 0c-15.85-0.37-31.66-12.09-32.32-12.59c-0.44-0.33-0.53-0.96-0.2-1.4c0.33-0.44 0.96-0.53 1.4-0.2c0.16 0.12 15.96 11.84 31.17 12.19c0.55 0.01 0.99 0.47 0.98 1.02c-0.01 0.54-0.46 0.98-1 0.98z" />
					<path id="&lt;Path&gt;" class="s5" d="m256.93 513.06c-0.25 0-0.5-0.09-0.7-0.28c-0.4-0.38-0.41-1.02-0.02-1.41c0.1-0.1 9.92-10.51 10.44-30.11c0.01-0.54 0.46-0.97 1-0.97c0.01 0 0.02 0 0.03 0c0.55 0.01 0.99 0.47 0.97 1.03c-0.55 20.43-10.58 31.01-11.01 31.45c-0.2 0.2-0.46 0.3-0.72 0.3z" />
					<path id="&lt;Path&gt;" class="s5" d="m278.08 568.79c-0.26 0-0.52-0.1-0.71-0.3c-0.39-0.39-0.38-1.03 0.01-1.41c0.12-0.12 12.01-12.05 13.79-29.42c0.06-0.55 0.55-0.95 1.1-0.89c0.55 0.06 0.95 0.55 0.89 1.1c-1.86 18.1-13.87 30.14-14.38 30.64c-0.19 0.19-0.45 0.29-0.7 0.29z" />
					<path id="&lt;Path&gt;" class="s5" d="m276.86 569.06c-3.26 0-16.32-0.77-30.33-12.14c-0.43-0.35-0.49-0.98-0.15-1.41c0.35-0.43 0.98-0.49 1.41-0.15c15.24 12.38 29.57 11.68 29.7 11.68c0.56-0.04 1.02 0.39 1.06 0.94c0.03 0.55-0.39 1.02-0.94 1.06c-0.07 0-0.33 0.02-0.75 0.02z" />
				</g>
				<g id="&lt;Group&gt;">
					<path id="&lt;Path&gt;" class="s6" d="m109.98 510.76c-7.4-21.57 4.08-45.06 25.65-52.46c21.57-7.4 45.06 4.08 52.46 25.65c0 0 0 0 0 0c4.12 11.99 13.18 21.63 24.89 26.49c13.46 5.58 24.55 16.69 29.66 31.55c4.98 14.5 16.43 25.88 30.96 30.76c17.02 5.71 31.28 18.99 37.56 37.28c10.72 31.24-5.91 65.25-37.14 75.98c-31.24 10.72-65.25-5.9-75.98-37.14c-0.57-1.67-1.07-3.35-1.49-5.03c-4.1-16.47-14.81-30.53-29.61-38.86c-10.86-6.11-19.6-16.07-23.96-28.78c-1.92-5.58-2.84-11.27-2.87-16.86c-0.05-11.23-5.57-21.73-14.77-28.17c-6.92-4.83-12.42-11.82-15.37-20.41z" />
					<path id="&lt;Path&gt;" class="s5" d="m148.13 498.51c9.11 14.98 19.33 29.35 29.95 43.34c2.67 3.49 5.31 7.01 8.07 10.42l4.1 5.16c1.36 1.73 2.74 3.44 4.15 5.12l8.41 10.15l8.66 9.94c11.69 13.12 23.65 26 36.24 38.25c6.18 6.24 12.65 12.18 19.07 18.17c3.17 3.03 6.53 5.87 9.82 8.77l9.9 8.67l0.05 0.05c0.99 0.86 1.09 2.36 0.22 3.35c-0.86 0.99-2.36 1.09-3.35 0.22c-0.01-0.01-0.03-0.03-0.04-0.03l-9.77-8.94c-3.25-2.99-6.56-5.92-9.68-9.03l-9.52-9.21c-3.21-3.02-6.23-6.25-9.34-9.38c-12.44-12.52-24.24-25.65-35.75-39.02c-11.49-13.38-22.48-27.19-33.02-41.33c-2.66-3.51-5.22-7.11-7.79-10.69c-2.6-3.56-5.06-7.22-7.58-10.84c-4.95-7.3-9.83-14.63-14.38-22.23c-0.26-0.43-0.12-0.99 0.31-1.25c0.43-0.26 0.98-0.12 1.24 0.31l0.01 0.02z" />
					<path id="&lt;Path&gt;" class="s5" d="m168.97 531.52c-0.2 0-0.39-0.06-0.57-0.18c-0.45-0.31-0.57-0.94-0.25-1.39c6.76-9.79 5.14-36.3 5.12-36.56c-0.04-0.55 0.38-1.03 0.93-1.06c0.56-0.03 1.03 0.38 1.06 0.93c0.07 1.12 1.68 27.47-5.47 37.83c-0.19 0.28-0.51 0.43-0.82 0.43z" />
					<path id="&lt;Path&gt;" class="s5" d="m168.2 531.78c-0.01 0-0.01 0-0.02 0c-0.75-0.01-18.45-0.4-31.52-7.13c-0.49-0.25-0.68-0.86-0.43-1.35c0.25-0.49 0.86-0.68 1.35-0.43c12.64 6.51 30.46 6.91 30.64 6.91c0.55 0.01 0.99 0.47 0.98 1.02c-0.01 0.55-0.46 0.98-1 0.98z" />
					<path id="&lt;Path&gt;" class="s5" d="m207.48 580.49c-0.14 0-0.29-0.03-0.42-0.09c-0.5-0.23-0.72-0.83-0.48-1.33c8.3-17.73 3.86-42.63 3.81-42.88c-0.1-0.54 0.26-1.06 0.8-1.16c0.54-0.1 1.06 0.26 1.16 0.8c0.19 1.04 4.61 25.78-3.97 44.09c-0.17 0.36-0.53 0.58-0.91 0.58z" />
					<path id="&lt;Path&gt;" class="s5" d="m194.94 582.51c-7.48 0-17.77-1.4-29.52-6.86c-0.5-0.23-0.72-0.83-0.49-1.33c0.23-0.5 0.83-0.72 1.33-0.49c22.96 10.66 40.53 5.26 40.71 5.21c0.52-0.17 1.09 0.12 1.26 0.65c0.17 0.53-0.12 1.09-0.65 1.26c-0.38 0.12-5.06 1.56-12.63 1.56z" />
					<path id="&lt;Path&gt;" class="s5" d="m238.85 639.94c-6.79 0-14.63-0.95-22.54-3.91c-0.52-0.19-0.78-0.77-0.59-1.29c0.19-0.52 0.77-0.78 1.29-0.59c21.07 7.91 41.61 1.03 41.81 0.96c0.52-0.18 1.09 0.1 1.27 0.62c0.18 0.52-0.1 1.09-0.62 1.27c-0.13 0.05-8.76 2.94-20.62 2.94z" />
					<path id="&lt;Path&gt;" class="s5" d="m259.74 636.6c-0.17 0-0.34-0.04-0.5-0.13c-0.48-0.27-0.65-0.88-0.37-1.36c0.09-0.16 9.09-16.34 3.57-40.95c-0.12-0.54 0.22-1.07 0.76-1.19c0.54-0.12 1.07 0.22 1.19 0.76c5.7 25.4-3.4 41.7-3.79 42.38c-0.18 0.32-0.52 0.5-0.87 0.5z" />
				</g>
			</g>
			<g id="&lt;Group&gt;">
				<g id="&lt;Group&gt;">
					<path id="&lt;Path&gt;" class="s7" d="m957.66 415.82c12.5-12.67 32.9-12.8 45.57-0.3c12.67 12.5 12.81 32.9 0.3 45.57c0 0 0 0 0 0c-6.95 7.04-10.54 16.73-9.86 26.6c0.78 11.35-3.13 22.96-11.75 31.69c0 0 0 0 0 0c-8.41 8.52-12.37 20.48-10.74 32.34c1.91 13.87-2.41 28.45-13.01 39.19c-18.1 18.35-47.65 18.55-66 0.44c-18.35-18.1-18.55-47.65-0.44-66c0.97-0.98 1.97-1.91 3-2.79c10.09-8.59 16.19-20.96 16.87-34.19c0.5-9.71 4.42-19.28 11.79-26.75c3.24-3.28 6.89-5.9 10.79-7.86c7.83-3.94 13.25-11.44 14.55-20.11c0.98-6.51 3.95-12.78 8.93-17.83z" />
					<path id="&lt;Path&gt;" class="s5" d="m979.72 438.38c-7.25 11.58-13.73 23.71-19.83 35.98c-1.52 3.07-3.05 6.14-4.48 9.25c-1.43 3.11-2.96 6.18-4.32 9.33l-4.17 9.4l-3.97 9.49c-5.15 12.7-10.04 25.52-14.27 38.55c-2.24 6.48-4.15 13.06-6.14 19.61c-1.04 3.27-1.87 6.59-2.78 9.89l-2.68 9.92l-0.01 0.05c-0.26 0.96-1.24 1.52-2.2 1.26c-0.96-0.26-1.52-1.24-1.26-2.2l0-0.02l2.79-9.95c0.94-3.31 1.82-6.65 2.89-9.92c2.07-6.57 4.05-13.17 6.37-19.66c4.38-13.06 9.42-25.89 14.72-38.6l4.08-9.49l4.28-9.4c1.4-3.15 2.96-6.22 4.43-9.33c1.47-3.11 3.04-6.18 4.59-9.25c6.26-12.27 12.85-24.35 20.3-36c0.3-0.47 0.92-0.6 1.38-0.3c0.46 0.3 0.6 0.91 0.31 1.37l-0.02 0.03z" />
					<path id="&lt;Path&gt;" class="s5" d="m966.18 465.03c-0.69 0-1.34-0.04-1.97-0.13c-0.55-0.08-0.93-0.59-0.85-1.13c0.08-0.55 0.58-0.92 1.13-0.85c9.11 1.31 27.01-8.99 27.19-9.1c0.48-0.28 1.09-0.11 1.37 0.36c0.28 0.48 0.11 1.09-0.36 1.37c-0.71 0.41-16.46 9.48-26.51 9.48z" />
					<path id="&lt;Path&gt;" class="s5" d="m963.9 464.46c-0.37 0-0.73-0.21-0.9-0.57c-0.25-0.53-6.15-13.08-5.99-24.6c0.01-0.55 0.44-1.03 1.01-0.99c0.55 0.01 0.99 0.46 0.99 1.01c-0.16 11.04 5.73 23.59 5.79 23.71c0.24 0.5 0.02 1.1-0.47 1.33c-0.14 0.07-0.28 0.1-0.43 0.1z" />
					<path id="&lt;Path&gt;" class="s5" d="m943.5 508.84c-0.54 0-0.99-0.43-1-0.98c-0.01-0.55 0.42-1.01 0.98-1.02c15.2-0.35 31.01-12.07 31.17-12.19c0.44-0.33 1.07-0.24 1.4 0.2c0.33 0.44 0.24 1.07-0.2 1.4c-0.66 0.5-16.47 12.22-32.32 12.59c-0.01 0-0.02 0-0.02 0z" />
					<path id="&lt;Path&gt;" class="s5" d="m943.07 508.87c-0.26 0-0.52-0.1-0.72-0.3c-0.43-0.44-10.46-11.02-11.01-31.45c-0.01-0.55 0.42-1.01 0.97-1.03c0.01 0 0.02 0 0.03 0c0.54 0 0.98 0.43 1 0.97c0.52 19.61 10.34 30.01 10.44 30.11c0.38 0.4 0.37 1.03-0.02 1.41c-0.19 0.19-0.44 0.28-0.7 0.28z" />
					<path id="&lt;Path&gt;" class="s5" d="m921.92 564.6c-0.25 0-0.51-0.1-0.7-0.29c-0.51-0.5-12.51-12.54-14.38-30.64c-0.06-0.55 0.34-1.04 0.89-1.1c0.55-0.06 1.04 0.34 1.1 0.89c1.79 17.37 13.67 29.3 13.79 29.42c0.39 0.39 0.4 1.02 0.01 1.41c-0.2 0.2-0.45 0.3-0.71 0.3z" />
					<path id="&lt;Path&gt;" class="s5" d="m923.14 564.87c-0.42 0-0.68-0.01-0.75-0.02c-0.55-0.03-0.97-0.5-0.94-1.06c0.03-0.55 0.5-0.97 1.06-0.94c0.15 0.01 14.51 0.66 29.7-11.68c0.43-0.35 1.06-0.28 1.41 0.15c0.35 0.43 0.28 1.06-0.15 1.41c-14.01 11.38-27.07 12.14-30.33 12.14z" />
				</g>
				<g id="&lt;Group&gt;">
					<path id="&lt;Path&gt;" class="s8" d="m1074.65 526.98c-9.21 6.43-14.72 16.94-14.77 28.17c-0.03 5.59-0.95 11.28-2.87 16.86c-4.36 12.71-13.11 22.67-23.96 28.78c-14.79 8.33-25.51 22.38-29.61 38.86c-0.42 1.68-0.91 3.36-1.49 5.03c-10.72 31.24-44.74 47.87-75.98 37.14c-31.24-10.72-47.87-44.74-37.14-75.98c6.28-18.29 20.54-31.57 37.56-37.28c14.53-4.88 25.99-16.26 30.96-30.76c5.1-14.87 16.2-25.97 29.66-31.55c11.71-4.86 20.78-14.5 24.89-26.49c0 0 0 0 0 0c7.4-21.57 30.89-33.05 52.46-25.65c21.57 7.4 33.05 30.89 25.65 52.46c-2.95 8.59-8.45 15.58-15.37 20.41z" />
					<path id="&lt;Path&gt;" class="s5" d="m1053.44 495.23c-4.54 7.6-9.42 14.93-14.38 22.23c-2.52 3.62-4.98 7.28-7.58 10.84c-2.57 3.58-5.12 7.18-7.79 10.69c-10.54 14.14-21.52 27.95-33.02 41.33c-11.51 13.36-23.31 26.49-35.75 39.02c-3.11 3.13-6.12 6.36-9.34 9.38l-9.52 9.21c-3.13 3.12-6.44 6.04-9.68 9.03l-9.77 8.94c-0.97 0.89-2.47 0.82-3.35-0.15c-0.89-0.97-0.82-2.47 0.15-3.36c0.01-0.01 0.02-0.02 0.03-0.03l0.06-0.06l9.9-8.67c3.29-2.9 6.64-5.74 9.82-8.77c6.42-5.99 12.89-11.92 19.07-18.17c12.59-12.25 24.55-25.13 36.24-38.25l8.66-9.94l8.41-10.15c1.41-1.68 2.79-3.39 4.15-5.12l4.1-5.16c2.76-3.42 5.4-6.93 8.07-10.42c10.62-14 20.84-28.36 29.95-43.34l0.01-0.02c0.26-0.43 0.82-0.57 1.25-0.3c0.43 0.26 0.56 0.82 0.31 1.24z" />
					<path id="&lt;Path&gt;" class="s5" d="m1031.03 527.33c-0.32 0-0.63-0.15-0.82-0.43c-7.15-10.36-5.54-36.71-5.47-37.83c0.04-0.55 0.5-0.97 1.06-0.93c0.55 0.04 0.97 0.51 0.93 1.06c-0.02 0.27-1.64 26.77 5.12 36.56c0.31 0.45 0.2 1.08-0.25 1.39c-0.17 0.12-0.37 0.18-0.57 0.18z" />
					<path id="&lt;Path&gt;" class="s5" d="m1031.8 527.59c-0.54 0-0.99-0.44-1-0.98c-0.01-0.55 0.43-1.01 0.98-1.02c0.18 0 17.99-0.4 30.64-6.91c0.49-0.25 1.09-0.06 1.35 0.43c0.25 0.49 0.06 1.09-0.43 1.35c-13.06 6.73-30.77 7.12-31.52 7.13c-0.01 0-0.01 0-0.02 0z" />
					<path id="&lt;Path&gt;" class="s5" d="m992.52 576.3c-0.38 0-0.74-0.21-0.91-0.58c-8.58-18.32-4.16-43.05-3.97-44.09c0.1-0.54 0.63-0.9 1.16-0.8c0.54 0.1 0.9 0.62 0.8 1.16c-0.05 0.25-4.49 25.15 3.81 42.88c0.23 0.5 0.02 1.1-0.48 1.33c-0.14 0.06-0.28 0.09-0.42 0.09z" />
					<path id="&lt;Path&gt;" class="s5" d="m1005.06 578.32c-7.58 0-12.26-1.44-12.63-1.56c-0.53-0.17-0.82-0.73-0.65-1.26c0.17-0.52 0.73-0.82 1.25-0.65c0.17 0.06 17.8 5.43 40.71-5.21c0.5-0.23 1.1-0.01 1.33 0.49c0.23 0.5 0.01 1.1-0.49 1.33c-11.75 5.46-22.05 6.86-29.52 6.86z" />
					<path id="&lt;Path&gt;" class="s5" d="m961.15 635.74c-11.86 0-20.49-2.89-20.62-2.94c-0.52-0.18-0.8-0.75-0.62-1.27c0.18-0.52 0.75-0.8 1.27-0.62c0.21 0.07 20.76 6.93 41.81-0.96c0.52-0.19 1.09 0.07 1.29 0.58c0.19 0.52-0.07 1.09-0.59 1.29c-7.91 2.97-15.76 3.91-22.54 3.91z" />
					<path id="&lt;Path&gt;" class="s5" d="m940.26 632.41c-0.35 0-0.68-0.18-0.87-0.5c-0.39-0.68-9.49-16.97-3.79-42.38c0.12-0.54 0.66-0.88 1.19-0.76c0.54 0.12 0.88 0.66 0.76 1.19c-5.53 24.65 3.48 40.78 3.57 40.94c0.27 0.48 0.11 1.09-0.37 1.36c-0.16 0.09-0.33 0.13-0.5 0.13z" />
				</g>
			</g>
			<g id="&lt;Group&gt;">
				<path id="&lt;Path&gt;" class="s9" d="m951.42 301.69l-7.84 331.94l-1.22 51.28c0 6.71-5.5 12.09-12.21 12.09h-660.01c-6.71 0-12.21-5.38-12.21-12.09l-0.75-51.34l-4.75-327.86c0-6.71 7.91-19.79 22.39-18.8l645.03-16.69c8.42-0.21 16.57 3.03 22.53 8.98c5.96 5.94 9.23 14.07 9.03 22.48z" />
				<g id="&lt;Group&gt;" style="opacity: .2">
					<path id="&lt;Path&gt;" class="s10" d="m926.22 674.65c0 6.26-5.23 11.38-11.63 11.38h-628.73c-6.39 0-11.63-5.12-11.63-11.38l-5.23-353.96c0-6.26 7.53-18.48 21.32-17.56l614.46-15.58c8.02-0.2 15.78 2.82 21.46 8.37c5.68 5.55 8.79 13.13 8.6 20.99l-8.63 357.73z" />
				</g>
				<path id="&lt;Path&gt;" class="s5" d="m914.22 688h-70.22c-0.55 0-1-0.45-1-1c0-0.55 0.45-1 1-1h70.22c8.94 0 16.78-8.08 16.78-17.28v-215.72c0-0.55 0.45-1 1-1c0.55 0 1 0.45 1 1v215.72c0 10.27-8.78 19.28-18.78 19.28z" />
				<path id="&lt;Path&gt;" class="s5" d="m270 452c-0.55 0-1-0.45-1-1v-126.59c0-13.13 9.96-23.41 22.67-23.41h56.33c0.55 0 1 0.45 1 1c0 0.55-0.45 1-1 1h-56.33c-11.78 0-20.67 9.21-20.67 21.41v126.59c0 0.55-0.45 1-1 1z" />
				<g id="&lt;Group&gt;">
					<path id="&lt;Path&gt;" class="s11" d="m428 505.79c0 6.74-5.47 12.21-12.21 12.21h-81.58c-6.74 0-12.21-5.47-12.21-12.21v-61.58c0-6.74 5.47-12.21 12.21-12.21h81.58c6.74 0 12.21 5.47 12.21 12.21v61.58z" />
					<g id="&lt;Group&gt;">
						<path id="&lt;Compound Path&gt;" fill-rule="evenodd" class="s12" d="m386.29 490h-24.58c-2.6 0-4.71-2.11-4.71-4.71v-19.58c0-2.6 2.11-4.71 4.71-4.71h24.58c2.6 0 4.71 2.11 4.71 4.71v19.58c0 2.6-2.11 4.71-4.71 4.71zm-24.58-27c-1.49 0-2.71 1.21-2.71 2.71v19.58c0 1.49 1.21 2.71 2.71 2.71h24.58c1.49 0 2.71-1.21 2.71-2.71v-19.58c0-1.49-1.21-2.71-2.71-2.71h-24.58z" />
						<g id="&lt;Group&gt;">
							<path id="&lt;Path&gt;" class="s5" d="m358 470h-36c-0.55 0-1-0.45-1-1c0-0.55 0.45-1 1-1h36c0.55 0 1 0.45 1 1c0 0.55-0.45 1-1 1z" />
							<path id="&lt;Path&gt;" class="s5" d="m358 478h-36c-0.55 0-1-0.45-1-1c0-0.55 0.45-1 1-1h36c0.55 0 1 0.45 1 1c0 0.55-0.45 1-1 1z" />
						</g>
						<g id="&lt;Group&gt;">
							<path id="&lt;Path&gt;" class="s5" d="m428 470h-38c-0.55 0-1-0.45-1-1c0-0.55 0.45-1 1-1h38c0.55 0 1 0.45 1 1c0 0.55-0.45 1-1 1z" />
							<path id="&lt;Path&gt;" class="s5" d="m428 478h-38c-0.55 0-1-0.45-1-1c0-0.55 0.45-1 1-1h38c0.55 0 1 0.45 1 1c0 0.55-0.45 1-1 1z" />
						</g>
						<g id="&lt;Group&gt;">
							<g id="&lt;Group&gt;">
								<path id="&lt;Path&gt;" class="s5" d="m363.55 462.94c-0.45 0-0.86-0.31-0.97-0.77l-7.19-30.34c-0.13-0.54 0.21-1.08 0.74-1.2c0.53-0.13 1.08 0.21 1.2 0.74l7.19 30.34c0.13 0.54-0.21 1.08-0.74 1.2c-0.08 0.02-0.16 0.03-0.23 0.03z" />
								<path id="&lt;Path&gt;" class="s5" d="m382.98 462.94c-0.08 0-0.16-0.01-0.24-0.03c-0.54-0.13-0.86-0.67-0.73-1.21l7.45-30.34c0.13-0.54 0.67-0.86 1.21-0.73c0.54 0.13 0.86 0.67 0.73 1.21l-7.45 30.34c-0.11 0.46-0.52 0.76-0.97 0.76z" />
							</g>
							<g id="&lt;Group&gt;">
								<path id="&lt;Path&gt;" class="s5" d="m356.37 519.63c-0.08 0-0.15-0.01-0.23-0.03c-0.54-0.13-0.87-0.67-0.74-1.2l7.19-30.34c0.13-0.54 0.66-0.87 1.2-0.74c0.54 0.13 0.87 0.67 0.74 1.2l-7.19 30.34c-0.11 0.46-0.52 0.77-0.97 0.77z" />
								<path id="&lt;Path&gt;" class="s5" d="m390.43 519.63c-0.45 0-0.86-0.31-0.97-0.76l-7.45-30.34c-0.13-0.54 0.2-1.08 0.73-1.21c0.54-0.13 1.08 0.2 1.21 0.73l7.45 30.34c0.13 0.54-0.2 1.08-0.73 1.21c-0.08 0.02-0.16 0.03-0.24 0.03z" />
							</g>
						</g>
					</g>
				</g>
				<path id="&lt;Path&gt;" class="s13" d="m429 351.5c0 8.01-6.49 14.5-14.5 14.5h-91c-8.01 0-14.5-6.49-14.5-14.5c0-8.01 6.49-14.5 14.5-14.5h91c8.01 0 14.5 6.49 14.5 14.5z" />
				<g id="&lt;Group&gt;" style="opacity: .6">
					<path id="&lt;Path&gt;" class="s5" d="m437 569.14c0 7.65-6.2 13.86-13.86 13.86h-100.29c-7.65 0-13.86-6.2-13.86-13.86v-0.29c0-7.65 6.2-13.86 13.86-13.86h100.29c7.65 0 13.86 6.2 13.86 13.86v0.29z" />
					<path id="&lt;Path&gt;" class="s5" d="m583 569.14c0 7.65-6.2 13.86-13.86 13.86h-100.29c-7.65 0-13.86-6.2-13.86-13.86v-0.29c0-7.65 6.2-13.86 13.86-13.86h100.29c7.65 0 13.86 6.2 13.86 13.86v0.29z" />
					<path id="&lt;Path&gt;" class="s5" d="m729 569.14c0 7.65-6.2 13.86-13.86 13.86h-100.29c-7.65 0-13.86-6.2-13.86-13.86v-0.29c0-7.65 6.2-13.86 13.86-13.86h100.29c7.65 0 13.86 6.2 13.86 13.86v0.29z" />
					<path id="&lt;Path&gt;" class="s5" d="m875 569.14c0 7.65-6.2 13.86-13.86 13.86h-100.29c-7.65 0-13.86-6.2-13.86-13.86v-0.29c0-7.65 6.2-13.86 13.86-13.86h100.29c7.65 0 13.86 6.2 13.86 13.86v0.29z" />
				</g>
				<g id="&lt;Group&gt;" style="opacity: .6">
					<path id="&lt;Path&gt;" class="s5" d="m534 631c0 6.08-4.92 11-11 11h-187c-6.08 0-11-4.92-11-11c0-6.08 4.92-11 11-11h187c6.08 0 11 4.92 11 11z" />
					<path id="&lt;Path&gt;" class="s5" d="m860 627c0 6.08-4.92 11-11 11h-82c-6.08 0-11-4.92-11-11c0-6.08 4.92-11 11-11h82c6.08 0 11 4.92 11 11z" />
				</g>
			</g>
			<g id="&lt;Group&gt;">
				<g id="&lt;Group&gt;">
					<path id="&lt;Path&gt;" class="s14" d="m360.98 186.73c-2.29-0.6-3.99-0.93-5.26-1.08c0.4-0.59 1.11-0.96 1.93-0.81c15.21 2.76 25.98 11.61 28.86 14.19c0.49 0.44 0.76 1.07 0.74 1.73c-0.01 0.23-0.02 0.5-0.03 0.8c-7.78-7.6-18.72-12.86-26.24-14.83z" />
					<path id="&lt;Path&gt;" class="s15" d="m387.22 201.57c-0.11 3.2-0.41 9.54-1.02 9.89c-1.24 0.72-3.9 0.83-7.98 0.34c-12.83-13.16-20.04-20.74-21.63-22.73c-0.37-0.47-0.68-0.9-0.92-1.3c-0.44-0.71-0.35-1.52 0.05-2.11c1.27 0.15 2.97 0.48 5.26 1.08c7.52 1.98 18.46 7.23 26.24 14.83z" />
				</g>
				<path id="&lt;Path&gt;" class="s16" d="m376.18 221.82l0.88-10.98c0.1-1.27 0.91-2.41 2.1-2.86c2.04-0.76 4.28-0.33 5.74 0.14c0.95 0.3 1.58 1.2 1.58 2.19v11.76l-10.3-0.26z" />
				<g id="&lt;Group&gt;">
					<path id="&lt;Path&gt;" class="s17" d="m341.68 225.14l-3.37 1.58c-17.06 3.33-28.95 0.99-34.18-0.54c1.03-2.01 4.6-5.78 16.81-10.09c10.53-3.72 15.67-5.08 18.14-5.57c0.35 0.29 0.62 0.68 0.76 1.14c1.06 3.51 1.68 8 1.83 13.48z" />
					<path id="&lt;Path&gt;" class="s18" d="m304.13 226.18c-0.18-0.05-0.36-0.11-0.52-0.16c-1.18-0.36-1.46-1.89-0.5-2.67c9.58-7.76 27.9-12.08 33.96-13.34c0.74-0.15 1.47 0.05 2.01 0.51c-2.47 0.49-7.61 1.85-18.14 5.57c-12.21 4.31-15.78 8.08-16.81 10.09z" />
				</g>
				<path id="&lt;Path&gt;" class="s19" d="m338.65 238.45l-5.22-10.12c-0.47-0.9-0.33-2.01 0.36-2.76c1.48-1.61 3-2.38 4.15-2.76c1.04-0.34 2.17-0.01 2.87 0.83l7.18 8.6l-9.34 6.21z" />
				<path id="&lt;Path&gt;" class="s20" d="m374.61 217.98c5.84-1.12 10.38-1.12 13.62 0c4.27 25.63 6.04 42.56 5.3 50.8l-18.92 3.85c-0.36-28.87-0.36-47.09 0-54.64z" />
				<path id="&lt;Path&gt;" class="s21" d="m452.26 285.33c-41.25 2.32-70.25 2.9-86.99 1.74c-2.46-0.17-4.64-1.63-5.74-3.83c-5.38-10.78-21.52-43.11-22.94-46.2c4.37-3.65 8.17-5.73 11.4-6.23c15.28 17 23.24 29.83 23.88 38.5c35.38-10.18 54.82-15.22 58.31-15.12c3.49 0.1 10.6 2.54 21.32 7.32l0.77 23.82z" />
				<path id="&lt;Path&gt;" class="s22" d="m534.74 237.1c-1.51-3.15-1.61-5.55-0.3-7.21c1.31-1.66 4.34-5.06 9.07-10.2l0.83-5.33l2.92 8.68l-6.26 13.09c-2.44 2.64-4.53 2.97-6.25 0.97z" />
				<path id="&lt;Path&gt;" class="s23" d="m537.83 258.76l-3.08-21.66l6.25-0.97c4.2 7.2 7.36 14.87 9.65 22.92c-4.02 2.04-10.46 0.42-12.81-0.3z" />
				<path id="&lt;Path&gt;" class="s24" d="m549.08 285.42c-6.7-1.66-19.19-7.35-28.94-15.64l-4.16 10.21c-2.48 4.78-18.1 5.34-23.49 5.34l-44.96 0.52l-2.82-25.75c-0.13-1.14 1.03-1.98 2.07-1.52l1.11 0.49c1.68 0.74 3.63 0.49 5.06-0.67c6.63-5.39 26.06-21.08 39.15-30.43c5.9-4.21 15.13-5.72 20.91-1.35l5.88 4.45c8.44 6.39 14.57 15.36 17.45 25.55l2.37 8.38l-0.89-6.22c2.36 0.71 8.79 2.34 12.81 0.3c1.93 6.77 3.25 13.81 4.05 21.09c0.37 3.34-2.53 6.04-5.61 5.27z" />
				<path id="&lt;Path&gt;" class="s25" d="m530.62 224.23l-7.35 11.58c-0.69 1.09-1.91 1.77-3.21 1.69c-3.04-0.2-6.7-2.86-10.96-7.94c-0.83-0.98-0.74-2.45 0.18-3.34l13.82-13.43l7.51 11.44z" />
				<path id="&lt;Path&gt;" class="s26" d="m551.01 278.96l11.89-4.63l13.82 11l-24.75 0.09l-0.96-6.46z" />
				<g id="&lt;Group&gt;">
					<path id="&lt;Path&gt;" class="s27" d="m546.29 209.69c-1.26 8.84-3.58 14.62-6.98 17.34c-5.09 4.08-15.02 1.01-18.37-8.99l6.68-17.1l18.67 8.75z" />
					<path id="&lt;Path&gt;" class="s28" d="m525.62 211.61c-0.33-0.11-0.68 0.06-0.81 0.37l-2.85 6.8c-0.19 0.45-0.78 0.55-1.1 0.19c-3.71-4.17-3.97-11.57-3.98-13.26c0-0.22-0.11-0.42-0.3-0.54c-1.12-0.74-4.83-3.57-2.23-6.83c1.88-2.36 3.85-2.07 5.07-1.5c0.45 0.21 0.95-0.13 0.93-0.62c-0.07-1.53 0.55-3.99 4.54-5.74c4.84-2.13 8.13 1.23 9.34 2.81c0.26 0.33 0.75 0.34 1.02 0.02c0.91-1.1 3.13-2.93 7.17-1.65c4.32 1.37 4.5 5.64 4.37 7.49c-0.03 0.43 0.36 0.77 0.78 0.69c11.13-2.09 6.86 9.19 2.65 11.43c-4.32 2.3-11.65-1.56-16.54-4.19c-3.26-1.75-4.72-2.05-4.4-0.89c-0.93 1.65-1.39 4.07-1.57 5.3c-0.06 0.4-0.47 0.65-0.85 0.53l-1.24-0.4z" />
					<path id="&lt;Path&gt;" class="s29" d="m526.25 216.94c-3.03-0.97-6.37-6.04-3.72-8.34c1.76-1.54 3.23 0.06 4.39 4.79l-0.67 3.55z" />
				</g>
				<path id="&lt;Path&gt;" class="s30" d="m522.6 269.56c-2.26 2.65-5.31 7.34-6.2 14.08c-18.32-4.18-24.99-14.04-29.42-27.34c-8.01-24.06 5.45-30.14 13.82-29.73c4.5 0.22 6.57 5.8 6.21 16.75c1.8 12.78 8.12 20.98 15.59 26.24z" />
				<path id="&lt;Path&gt;" class="s31" d="m521.76 269.61c-0.13 0-0.26-0.04-0.38-0.12c-8.6-6.06-13.37-14.34-15.02-26.07c-0.01-0.04-0.01-0.07-0.01-0.11c0.14-4.39-0.59-15.83-5.59-16.07c-2.42-0.12-4.95 0.34-7.14 1.29c-0.33 0.14-0.72-0.01-0.86-0.34c-0.14-0.33 0.01-0.72 0.34-0.86c2.37-1.03 5.11-1.51 7.73-1.39c7.17 0.35 6.87 16.1 6.84 17.37c1.6 11.32 6.2 19.3 14.47 25.13c0.3 0.21 0.37 0.62 0.16 0.91c-0.13 0.18-0.33 0.28-0.54 0.28z" />
				<path id="&lt;Path&gt;" class="s32" d="m510.57 282.65c-0.07 0-0.14-0.01-0.21-0.04c-15.2-5.24-20.52-15.65-24-26.1c-0.79-2.37-1.4-4.65-1.81-6.78c-0.07-0.36 0.16-0.7 0.52-0.77c0.36-0.07 0.7 0.16 0.77 0.52c0.4 2.08 1 4.3 1.77 6.62c3.38 10.14 8.52 20.22 23.18 25.28c0.34 0.12 0.52 0.49 0.41 0.83c-0.09 0.27-0.35 0.44-0.62 0.44z" />
				<path id="&lt;Path&gt;" class="s33" d="m516.4 283.64c0.89-6.74 3.95-11.43 6.2-14.08c9.26 6.53 19.84 9.66 31.75 9.4l0.03 6.37c-16.46 1.09-28.71 0.43-37.98-1.68z" />
				<g id="&lt;Group&gt;">
					<path id="&lt;Path&gt;" class="s34" d="m529.08 285.01c0-1.4 1.14-2.54 2.54-2.54l56.78-0.06c1.4-0.03 2.54 1.13 2.54 2.54c0 1.4-1.14 2.54-2.54 2.54l-56.78 0.06c-0.04 0-0.09 0-0.13 0c-1.34-0.07-2.41-1.18-2.41-2.54z" />
					<path id="&lt;Path&gt;" class="s35" d="m642.95 241.16l-16.95 42.89c-0.83 2.09-2.85 3.46-5.09 3.46h-58.76l21.86-46.35c1.49-3.15 4.66-5.17 8.15-5.17h47.28c2.66 0 4.49 2.69 3.51 5.16z" />
					<path id="&lt;Path&gt;" class="s36" d="m611.53 255.14c1.96 0.63 2.72 3.72 1.69 6.91c-1.02 3.18-3.44 5.25-5.4 4.62c-1.96-0.63-2.72-3.72-1.69-6.91c1.02-3.18 3.44-5.25 5.4-4.62z" />
				</g>
			</g>
			<g id="&lt;Group&gt;">
				<path id="&lt;Path&gt;" class="s37" d="m335.42 525.62h-176.55c-3.77 0-6.83-3.06-6.83-6.83c0-3.77 3.06-6.83 6.83-6.83h176.55c3.77 0 6.83 3.06 6.83 6.83c0 3.77-3.06 6.83-6.83 6.83z" />
				<path id="&lt;Path&gt;" class="s38" d="m356.63 552.38h-176.55c-3.77 0-6.83-3.06-6.83-6.83c0-3.77 3.06-6.83 6.83-6.83h176.55c3.77 0 6.83 3.06 6.83 6.83c0 3.77-3.06 6.83-6.83 6.83z" />
				<path id="&lt;Path&gt;" class="s38" d="m306.43 605.9h-126.34c-3.77 0-6.83-3.06-6.83-6.83c0-3.77 3.06-6.83 6.83-6.83h126.34c3.77 0 6.83 3.06 6.83 6.83c0 3.77-3.06 6.83-6.83 6.83z" />
				<path id="&lt;Path&gt;" class="s37" d="m376.43 579.14h-176.55c-3.77 0-6.83-3.06-6.83-6.83c0-3.77 3.06-6.83 6.83-6.83h176.55c3.77 0 6.83 3.06 6.83 6.83c0 3.77-3.06 6.83-6.83 6.83z" />
			</g>
			<g id="&lt;Group&gt;">
				<path id="&lt;Path&gt;" class="s37" d="m975.61 345.26h-176.55c-3.77 0-6.83-3.06-6.83-6.83c0-3.77 3.06-6.83 6.83-6.83h176.55c3.77 0 6.83 3.06 6.83 6.83c0 3.77-3.06 6.83-6.83 6.83z" />
				<path id="&lt;Path&gt;" class="s38" d="m996.82 372.02h-176.55c-3.77 0-6.83-3.06-6.83-6.83c0-3.77 3.06-6.83 6.83-6.83h176.55c3.77 0 6.83 3.06 6.83 6.83c0 3.77-3.06 6.83-6.83 6.83z" />
				<path id="&lt;Path&gt;" class="s38" d="m946.62 425.54h-126.34c-3.77 0-6.83-3.06-6.83-6.83c0-3.77 3.06-6.83 6.83-6.83h126.34c3.77 0 6.83 3.06 6.83 6.83c0 3.77-3.06 6.83-6.83 6.83z" />
				<path id="&lt;Path&gt;" class="s37" d="m1016.62 398.78h-176.55c-3.77 0-6.83-3.06-6.83-6.83c0-3.77 3.06-6.83 6.83-6.83h176.55c3.77 0 6.83 3.06 6.83 6.83c0 3.77-3.06 6.83-6.83 6.83z" />
			</g>
			<path id="&lt;Path&gt;" class="s39" d="m844.26 207.73c-7.94 13.41-23.11 21.93-36.72 28.49c-13.7 6.6-29.16 12.83-44.62 12.7c-14.01-0.12-33.48-7.82-43.05-18.42c-30.34-33.56-68.2-43.97-102.42-4.98c-2.36 2.68-2.27-4.64-2.24-5.46c0.1-2.75 0.51-5.48 0.77-8.21c0.63-6.67 3.97-13.43 6.22-19.7c2.41-6.72 5.13-13.33 8.83-19.46c18.76-31.09 52.61-53.16 91.13-51.46c20.86 0.92 41.53 6.24 61.47 12.07c16.78 4.91 34.13 11.48 47.47 23.17c14.1 12.35 23.58 33.67 13.16 51.27z" />
			<g id="&lt;Group&gt;">
				<g id="&lt;Group&gt;">
					<g id="&lt;Group&gt;">
						<g id="&lt;Group&gt;">
							<g id="&lt;Group&gt;">
								<g id="&lt;Group&gt;">
									<path id="&lt;Compound Path&gt;" fill-rule="evenodd" class="s5" d="m786 160v9.84c0 3.69-1.32 7.25-3.32 10.34l-1.86 2.45c-2.19 3.39-5.9 5.37-9.94 5.37h-41.42l-0.31-1.11l-10.15-37.22l-8.52-4.6l1.27-2.32l9.52 5.19l3.26 12.06h61.46zm-3 3h-57.73l4.08 15.04l2.15 7.96h39.38c3.13 0 6.05-1.86 7.75-4.48l1.64-2.76c1.72-2.66 2.72-5.75 2.72-8.92v-6.84z" />
								</g>
								<g id="&lt;Group&gt;">
									<path id="&lt;Path&gt;" class="s5" d="m780.42 201.5c0 0.73-0.6 1.5-1.33 1.5h-48.59c-0.74 0-1.49-1.15-1.49-1.88v-22.91c0-0.25 0.15-0.2 0.27-0.4l2.24 8.2h0.49v14h47.08c0.74 0 1.33 0.77 1.33 1.5z" />
								</g>
							</g>
							<g id="&lt;Group&gt;">
								<path id="&lt;Path&gt;" class="s5" d="m755.21 186.28h-1.77v-24.94h1.77v24.94z" />
								<g id="&lt;Group&gt;">
									<path id="&lt;Path&gt;" class="s5" d="m739.55 186.28h-1.77v-24.94h1.77v24.94z" />
									<path id="&lt;Path&gt;" class="s5" d="m770.51 186.28h-1.77v-24.94h1.77v24.94z" />
								</g>
							</g>
							<g id="&lt;Group&gt;">
								<path id="&lt;Path&gt;" class="s5" d="m783.64 170.26h-57.69v-1.59h57.69v1.59z" />
								<path id="&lt;Path&gt;" class="s5" d="m782.19 178.94h-53.73v-1.59h53.73v1.59z" />
							</g>
						</g>
						<path id="&lt;Compound Path&gt;" fill-rule="evenodd" class="s5" d="m742.45 210.44c0 3.16-2.57 5.73-5.73 5.73c-3.16 0-5.73-2.57-5.73-5.73c0-3.16 2.57-5.73 5.73-5.73c3.16 0 5.73 2.57 5.73 5.73zm-2.27 0c0-1.91-1.55-3.46-3.46-3.46c-1.91 0-3.46 1.55-3.46 3.46c0 1.91 1.55 3.46 3.46 3.46c1.91 0 3.46-1.55 3.46-3.46z" />
						<path id="&lt;Compound Path&gt;" fill-rule="evenodd" class="s5" d="m778.05 210.44c0 3.16-2.57 5.73-5.73 5.73c-3.16 0-5.73-2.57-5.73-5.73c0-3.16 2.57-5.73 5.73-5.73c3.16 0 5.73 2.57 5.73 5.73zm-2.27 0c0-1.91-1.55-3.46-3.46-3.46c-1.91 0-3.46 1.55-3.46 3.46c0 1.91 1.55 3.46 3.46 3.46c1.91 0 3.46-1.55 3.46-3.46z" />
					</g>
					<path id="&lt;Path&gt;" class="s5" d="m717.66 145.07c0 1.49-1.21 2.69-2.69 2.69h-8.96c-1.49 0-2.69-1.21-2.69-2.69c0-1.49 1.21-2.69 2.69-2.69h8.96c1.49 0 2.69 1.21 2.69 2.69z" />
				</g>
			</g>
			<g id="&lt;Group&gt;">
				<g id="&lt;Group&gt;">
					<path id="&lt;Path&gt;" class="s40" d="m595.88 98.2l4.77 11.26l-9.68-1.61l4.9-9.65z" />
					<path id="&lt;Path&gt;" class="s41" d="m598.61 81.08c0.44-0.25 0.99-0.21 1.38 0.1c0.4 0.31 0.57 0.83 0.43 1.32l-12.25 42.4c-0.23 0.81-0.79 1.49-1.53 1.88c-0.74 0.39-1.62 0.46-2.41 0.2l-41.71-13.78l56.1-32.13z" />
					<path id="&lt;Path&gt;" class="s42" d="m595.38 108.12l-1.46-3.07l-51.41 8.16l53.37-15l-0.5 9.92z" />
					<path id="&lt;Path&gt;" class="s43" d="m593.92 105.06l6.73 4.41l-7.92-0.35l1.19-4.05z" />
				</g>
			</g>
			<g id="&lt;Group&gt;">
				<path id="&lt;Path&gt;" class="s44" d="m615.19 110.46c-0.47 0-0.89-0.33-0.98-0.81c-0.11-0.54 0.25-1.07 0.79-1.17c0.02 0 2.14-0.41 5.94-1.03c0.54-0.09 1.06 0.28 1.15 0.83c0.09 0.55-0.28 1.06-0.83 1.15c-3.76 0.61-5.85 1.01-5.88 1.02c-0.06 0.01-0.13 0.02-0.19 0.02z" />
				<path id="&lt;Compound Path&gt;" class="s44" d="m249.03 618.32c-0.38 0-0.74-0.22-0.91-0.59c-1.72-3.78-3.31-7.54-4.72-11.17c-0.2-0.52 0.06-1.09 0.57-1.29c0.52-0.2 1.09 0.06 1.29 0.57c1.4 3.59 2.97 7.32 4.68 11.07c0.23 0.5 0.01 1.1-0.5 1.32c-0.13 0.06-0.28 0.09-0.41 0.09zm-8.7-22.51c-0.43 0-0.82-0.28-0.96-0.7c-1.24-4-2.29-7.95-3.13-11.74c-0.12-0.54 0.22-1.07 0.76-1.19c0.53-0.12 1.07 0.22 1.19 0.76c0.82 3.74 1.86 7.64 3.08 11.58c0.16 0.53-0.13 1.09-0.66 1.25c-0.1 0.03-0.2 0.05-0.3 0.05zm-5.1-23.56c-0.5 0-0.94-0.38-0.99-0.89c-0.4-3.62-0.61-7.2-0.61-10.63c0-0.52 0.01-1.03 0.01-1.55c0.01-0.55 0.45-0.98 1.02-0.98c0.55 0.01 0.99 0.47 0.98 1.02c-0.01 0.5-0.01 1.01-0.01 1.51c0 3.36 0.2 6.86 0.6 10.41c0.06 0.55-0.33 1.04-0.88 1.1c-0.04 0-0.08 0.01-0.11 0.01zm0.52-24.02c-0.06 0-0.11 0-0.17-0.01c-0.54-0.09-0.91-0.61-0.82-1.16c0.7-4.04 1.74-8 3.08-11.76c0.19-0.52 0.76-0.79 1.28-0.6c0.52 0.19 0.79 0.76 0.6 1.28c-1.31 3.65-2.32 7.5-2.99 11.42c-0.08 0.49-0.51 0.83-0.98 0.83zm8.06-22.47c-0.17 0-0.34-0.04-0.5-0.13c-0.48-0.28-0.64-0.89-0.37-1.37c1.99-3.45 4.33-6.82 6.95-10c0.35-0.43 0.98-0.49 1.41-0.14c0.43 0.35 0.49 0.98 0.13 1.41c-2.55 3.1-4.83 6.37-6.76 9.73c-0.19 0.32-0.52 0.5-0.87 0.5zm15.18-18.54c-0.27 0-0.54-0.11-0.74-0.33c-0.37-0.41-0.34-1.04 0.07-1.41c2.89-2.62 6.09-5.17 9.5-7.58c0.45-0.32 1.07-0.21 1.39 0.24c0.32 0.45 0.21 1.08-0.24 1.39c-3.35 2.37-6.48 4.87-9.32 7.43c-0.19 0.17-0.43 0.26-0.67 0.26zm19.59-13.96c-0.35 0-0.69-0.18-0.87-0.5c-0.27-0.48-0.11-1.09 0.37-1.36c3.38-1.93 7-3.81 10.78-5.59c0.5-0.24 1.1-0.02 1.33 0.48c0.24 0.5 0.02 1.1-0.48 1.33c-3.73 1.76-7.31 3.61-10.64 5.51c-0.16 0.09-0.33 0.13-0.49 0.13zm21.79-10.34c-0.4 0-0.77-0.24-0.93-0.63c-0.2-0.51 0.05-1.09 0.56-1.3c3.62-1.43 7.45-2.84 11.39-4.17c0.53-0.18 1.09 0.1 1.27 0.63c0.18 0.52-0.1 1.09-0.63 1.27c-3.91 1.32-7.71 2.71-11.29 4.13c-0.12 0.05-0.25 0.07-0.37 0.07zm22.87-7.77c-0.43 0-0.83-0.28-0.96-0.72c-0.15-0.53 0.15-1.09 0.68-1.24c3.75-1.09 7.68-2.16 11.69-3.18c0.54-0.14 1.08 0.19 1.22 0.72c0.14 0.54-0.19 1.08-0.72 1.21c-3.99 1.01-7.9 2.07-11.62 3.16c-0.09 0.03-0.19 0.04-0.28 0.04zm23.41-5.96c-0.46 0-0.87-0.32-0.98-0.78c-0.12-0.54 0.22-1.07 0.76-1.19c3.81-0.85 7.8-1.68 11.85-2.48c0.54-0.11 1.07 0.25 1.17 0.79c0.11 0.54-0.25 1.07-0.79 1.17c-4.04 0.79-8.01 1.62-11.8 2.47c-0.07 0.02-0.15 0.02-0.22 0.02zm23.71-4.67c-0.48 0-0.9-0.34-0.98-0.83c-0.09-0.54 0.27-1.06 0.81-1.16c3.84-0.67 7.86-1.34 11.94-1.97c0.54-0.09 1.06 0.29 1.14 0.83c0.09 0.55-0.29 1.06-0.83 1.14c-4.07 0.64-8.07 1.3-11.91 1.97c-0.06 0.01-0.12 0.02-0.17 0.02zm23.88-3.75c-0.49 0-0.92-0.36-0.99-0.86c-0.08-0.55 0.3-1.05 0.85-1.13c3.86-0.55 7.9-1.09 11.99-1.61c0.55-0.07 1.05 0.32 1.12 0.86c0.07 0.55-0.32 1.05-0.87 1.12c-4.08 0.52-8.11 1.07-11.96 1.61c-0.05 0.01-0.09 0.01-0.14 0.01zm23.97-3.09c-0.5 0-0.93-0.37-0.99-0.88c-0.06-0.55 0.33-1.05 0.88-1.11c4-0.47 8-0.92 12.02-1.36c0.54-0.06 1.04 0.34 1.1 0.89c0.06 0.55-0.34 1.04-0.89 1.1c-4.01 0.44-8.01 0.89-12 1.36c-0.04 0-0.08 0.01-0.12 0.01zm24.04-2.64c-0.51 0-0.94-0.38-0.99-0.9c-0.06-0.55 0.34-1.04 0.89-1.1c4.01-0.41 8.02-0.81 12.03-1.21c0.56-0.05 1.04 0.35 1.09 0.9c0.05 0.55-0.35 1.04-0.9 1.09c-4 0.39-8.01 0.79-12.02 1.21c-0.04 0-0.07 0.01-0.1 0.01zm24.03-2.36c-0.51 0-0.95-0.39-0.99-0.91c-0.05-0.55 0.35-1.04 0.9-1.09c4.03-0.38 8.04-0.76 12.03-1.13c0.56-0.05 1.04 0.35 1.09 0.9c0.05 0.55-0.35 1.04-0.9 1.09c-3.99 0.37-8.01 0.75-12.03 1.13c-0.03 0-0.06 0-0.1 0zm24.07-2.27c-0.51 0-0.95-0.39-1-0.91c-0.05-0.55 0.35-1.04 0.9-1.09c4.04-0.38 8.05-0.76 12.03-1.15c0.55-0.06 1.04 0.35 1.09 0.9c0.05 0.55-0.35 1.04-0.9 1.09c-3.98 0.39-7.99 0.77-12.03 1.15c-0.03 0-0.06 0-0.09 0zm24.06-2.34c-0.51 0-0.94-0.38-0.99-0.9c-0.06-0.55 0.34-1.04 0.89-1.1c4.05-0.41 8.06-0.83 12.01-1.27c0.55-0.06 1.04 0.34 1.1 0.89c0.06 0.55-0.34 1.04-0.89 1.1c-3.96 0.43-7.97 0.85-12.03 1.27c-0.03 0-0.07 0.01-0.1 0.01zm24.03-2.64c-0.5 0-0.93-0.37-0.99-0.88c-0.07-0.55 0.33-1.05 0.87-1.11c1.42-0.17 2.84-0.34 4.24-0.52c2.53-0.32 5.11-0.64 7.74-0.98c0.55-0.08 1.05 0.32 1.12 0.86c0.07 0.55-0.32 1.05-0.87 1.12c-2.63 0.34-5.21 0.66-7.74 0.98c-1.41 0.18-2.83 0.35-4.25 0.52c-0.04 0-0.08 0.01-0.12 0.01zm23.97-3.07c-0.49 0-0.92-0.36-0.99-0.87c-0.07-0.55 0.31-1.05 0.86-1.12c3.91-0.52 7.9-1.07 11.97-1.64c0.56-0.08 1.05 0.3 1.13 0.85c0.08 0.55-0.3 1.05-0.85 1.13c-4.08 0.57-8.07 1.12-11.99 1.65c-0.04 0.01-0.09 0.01-0.13 0.01zm23.95-3.37c-0.49 0-0.92-0.36-0.99-0.85c-0.08-0.55 0.3-1.05 0.84-1.13c3.92-0.58 7.91-1.18 11.95-1.8c0.54-0.08 1.06 0.29 1.14 0.84c0.08 0.55-0.29 1.06-0.84 1.14c-4.04 0.62-8.03 1.22-11.96 1.8c-0.05 0.01-0.1 0.01-0.15 0.01zm23.9-3.69c-0.48 0-0.91-0.35-0.99-0.84c-0.09-0.54 0.28-1.06 0.83-1.15c3.93-0.63 7.91-1.29 11.92-1.97c0.55-0.1 1.06 0.28 1.15 0.82c0.09 0.54-0.28 1.06-0.82 1.15c-4.02 0.68-8 1.34-11.93 1.97c-0.05 0.01-0.11 0.01-0.16 0.01zm23.84-4.03c-0.48 0-0.9-0.34-0.98-0.83c-0.1-0.54 0.27-1.06 0.81-1.16c3.93-0.7 7.9-1.41 11.89-2.15c0.55-0.1 1.06 0.26 1.17 0.8c0.1 0.54-0.26 1.06-0.8 1.17c-3.99 0.74-7.96 1.46-11.9 2.16c-0.06 0.01-0.12 0.02-0.17 0.02zm23.77-4.41c-0.47 0-0.89-0.33-0.98-0.81c-0.11-0.54 0.25-1.07 0.79-1.17c3.93-0.76 7.88-1.55 11.85-2.35c0.55-0.11 1.07 0.24 1.18 0.78c0.11 0.54-0.24 1.07-0.78 1.18c-3.97 0.81-7.93 1.59-11.86 2.36c-0.06 0.01-0.13 0.02-0.19 0.02zm23.69-4.82c-0.46 0-0.88-0.32-0.98-0.79c-0.12-0.54 0.23-1.07 0.77-1.19c3.92-0.84 7.86-1.7 11.8-2.58c0.54-0.12 1.07 0.22 1.19 0.76c0.12 0.54-0.22 1.07-0.76 1.19c-3.95 0.88-7.89 1.74-11.82 2.58c-0.07 0.02-0.14 0.02-0.21 0.02zm23.59-5.28c-0.45 0-0.86-0.31-0.97-0.77c-0.13-0.54 0.21-1.08 0.75-1.2c3.96-0.93 7.92-1.88 11.78-2.83c0.54-0.13 1.08 0.2 1.21 0.73c0.13 0.54-0.2 1.08-0.73 1.21c-3.86 0.95-7.83 1.91-11.8 2.84c-0.08 0.02-0.15 0.03-0.23 0.03zm23.52-5.8c-0.44 0-0.85-0.3-0.97-0.75c-0.14-0.53 0.18-1.08 0.72-1.22c3.92-1.02 7.85-2.06 11.66-3.11c0.53-0.14 1.08 0.17 1.23 0.7c0.15 0.53-0.17 1.08-0.7 1.23c-3.82 1.04-7.76 2.09-11.69 3.11c-0.08 0.02-0.17 0.03-0.25 0.03zm23.29-6.37c-0.43 0-0.83-0.29-0.96-0.72c-0.15-0.53 0.15-1.09 0.68-1.24c3.89-1.12 7.78-2.27 11.57-3.42c0.53-0.16 1.09 0.14 1.25 0.67c0.16 0.53-0.14 1.09-0.67 1.25c-3.8 1.16-7.7 2.31-11.6 3.43c-0.09 0.03-0.19 0.04-0.28 0.04zm23.12-7.04c-0.42 0-0.82-0.27-0.95-0.69c-0.17-0.53 0.12-1.09 0.65-1.26c3.87-1.25 7.73-2.52 11.45-3.8c0.52-0.18 1.09 0.1 1.27 0.62c0.18 0.52-0.1 1.09-0.62 1.27c-3.74 1.28-7.6 2.56-11.49 3.81c-0.1 0.03-0.21 0.05-0.31 0.05zm22.87-7.81c-0.41 0-0.79-0.25-0.94-0.66c-0.19-0.52 0.08-1.09 0.6-1.28c3.83-1.39 7.63-2.81 11.3-4.23c0.51-0.2 1.09 0.06 1.29 0.57c0.2 0.52-0.06 1.09-0.57 1.29c-3.68 1.42-7.49 2.85-11.34 4.24c-0.11 0.04-0.23 0.06-0.34 0.06zm22.54-8.72c-0.39 0-0.76-0.23-0.92-0.62c-0.21-0.51 0.03-1.1 0.54-1.31c3.75-1.55 7.48-3.15 11.08-4.75c0.51-0.23 1.09 0 1.32 0.51c0.22 0.5 0 1.1-0.51 1.32c-3.62 1.61-7.36 3.21-11.13 4.77c-0.13 0.05-0.25 0.08-0.38 0.08zm22.08-9.82c-0.37 0-0.73-0.21-0.9-0.57c-0.24-0.5-0.03-1.1 0.47-1.33c3.68-1.76 7.31-3.57 10.78-5.38c0.49-0.26 1.09-0.06 1.35 0.43c0.25 0.49 0.06 1.09-0.43 1.35c-3.49 1.81-7.14 3.63-10.84 5.41c-0.14 0.07-0.29 0.1-0.43 0.1zm21.43-11.15c-0.35 0-0.69-0.18-0.87-0.51c-0.27-0.48-0.1-1.09 0.38-1.36c3.56-2.02 7.04-4.09 10.35-6.15c0.47-0.29 1.08-0.15 1.38 0.32c0.29 0.47 0.15 1.09-0.32 1.38c-3.33 2.08-6.84 4.17-10.42 6.2c-0.16 0.09-0.33 0.13-0.49 0.13zm20.47-12.81c-0.32 0-0.63-0.15-0.82-0.43c-0.32-0.45-0.2-1.08 0.25-1.39c3.37-2.34 6.62-4.73 9.68-7.12c0.44-0.34 1.06-0.26 1.4 0.17c0.34 0.44 0.26 1.06-0.17 1.4c-3.09 2.41-6.37 4.83-9.77 7.19c-0.17 0.12-0.37 0.18-0.57 0.18zm18.98-14.9c-0.27 0-0.55-0.11-0.75-0.33c-0.37-0.41-0.33-1.04 0.08-1.41c3.05-2.73 5.95-5.53 8.62-8.33c0.38-0.4 1.01-0.41 1.41-0.03c0.4 0.38 0.41 1.01 0.03 1.41c-2.71 2.83-5.64 5.67-8.73 8.43c-0.19 0.17-0.43 0.25-0.67 0.25zm16.6-17.46c-0.22 0-0.44-0.07-0.62-0.22c-0.43-0.34-0.51-0.97-0.16-1.41c2.52-3.18 4.85-6.45 6.91-9.72c0.3-0.47 0.91-0.61 1.38-0.31c0.47 0.29 0.61 0.91 0.31 1.38c-2.1 3.33-4.47 6.66-7.04 9.9c-0.2 0.25-0.49 0.38-0.78 0.38zm12.77-20.34c-0.14 0-0.29-0.03-0.43-0.1c-0.5-0.24-0.71-0.83-0.48-1.33c1.71-3.61 3.16-7.33 4.33-11.05c0.17-0.53 0.73-0.82 1.25-0.65c0.53 0.17 0.82 0.73 0.65 1.25c-1.2 3.81-2.69 7.61-4.43 11.31c-0.17 0.36-0.53 0.57-0.91 0.57zm7.17-22.86c-0.05 0-0.11 0-0.16-0.01c-0.54-0.09-0.91-0.6-0.82-1.15c0.63-3.87 1-7.84 1.08-11.8c0.01-0.55 0.46-0.96 1.02-0.98c0.55 0.01 0.99 0.47 0.98 1.02c-0.08 4.06-0.46 8.12-1.11 12.08c-0.08 0.49-0.5 0.84-0.99 0.84zm0.53-23.99c-0.5 0-0.94-0.38-0.99-0.89c-0.43-3.86-1.13-7.82-2.06-11.77c-0.13-0.54 0.21-1.08 0.74-1.2c0.54-0.13 1.08 0.21 1.2 0.74c0.95 4.03 1.66 8.07 2.1 12c0.06 0.55-0.33 1.04-0.88 1.11c-0.04 0-0.08 0.01-0.11 0.01zm-5.47-23.47c-0.41 0-0.8-0.26-0.94-0.67c-0.81-2.32-1.71-4.68-2.68-7.02c-0.58-1.39-1.16-2.76-1.77-4.11c-0.23-0.5 0-1.1 0.51-1.32c0.51-0.22 1.1 0 1.32 0.51c0.61 1.37 1.21 2.76 1.79 4.16c0.98 2.38 1.9 4.78 2.72 7.13c0.18 0.52-0.09 1.09-0.62 1.27c-0.11 0.04-0.22 0.06-0.33 0.06zm-9.78-22.04c-0.36 0-0.7-0.19-0.88-0.53c-1.89-3.52-3.94-6.99-6.07-10.33c-0.3-0.46-0.16-1.08 0.3-1.38c0.46-0.3 1.08-0.16 1.38 0.3c2.16 3.38 4.23 6.89 6.15 10.46c0.26 0.49 0.08 1.09-0.41 1.35c-0.15 0.08-0.31 0.12-0.47 0.12zm-13-20.28c-0.3 0-0.6-0.14-0.8-0.4c-2.4-3.17-4.95-6.28-7.59-9.26c-0.37-0.41-0.33-1.04 0.08-1.41c0.41-0.37 1.04-0.33 1.41 0.08c2.68 3.02 5.27 6.18 7.69 9.38c0.33 0.44 0.25 1.07-0.19 1.4c-0.18 0.14-0.39 0.2-0.6 0.2zm-15.99-18.03c-0.25 0-0.5-0.09-0.7-0.28c-2.84-2.75-5.84-5.44-8.92-8.01c-0.42-0.35-0.48-0.98-0.13-1.41c0.35-0.42 0.98-0.48 1.41-0.13c3.11 2.6 6.15 5.32 9.03 8.11c0.4 0.38 0.41 1.02 0.02 1.41c-0.2 0.2-0.46 0.3-0.72 0.3zm-18.5-15.44c-0.2 0-0.41-0.06-0.58-0.19c-3.2-2.3-6.55-4.55-9.96-6.68c-0.47-0.29-0.61-0.91-0.32-1.38c0.29-0.47 0.91-0.61 1.38-0.32c3.45 2.15 6.84 4.43 10.07 6.75c0.45 0.32 0.55 0.95 0.23 1.4c-0.2 0.27-0.5 0.42-0.81 0.42zm-20.45-12.78c-0.16 0-0.32-0.04-0.47-0.12c-3.47-1.87-7.08-3.69-10.73-5.4c-0.5-0.23-0.72-0.83-0.48-1.33c0.23-0.5 0.83-0.72 1.33-0.48c3.69 1.73 7.34 3.56 10.83 5.46c0.49 0.26 0.67 0.87 0.4 1.35c-0.18 0.33-0.53 0.52-0.88 0.52zm-21.85-10.26c-0.13 0-0.25-0.02-0.38-0.07c-3.66-1.48-7.44-2.9-11.26-4.23c-0.52-0.18-0.8-0.75-0.62-1.27c0.18-0.52 0.76-0.8 1.27-0.62c3.84 1.34 7.66 2.78 11.35 4.27c0.51 0.21 0.76 0.79 0.55 1.3c-0.16 0.39-0.53 0.63-0.93 0.63zm-22.79-7.97c-0.09 0-0.19-0.01-0.29-0.04c-3.77-1.13-7.67-2.2-11.6-3.2c-0.54-0.14-0.86-0.68-0.72-1.22c0.14-0.54 0.68-0.86 1.22-0.72c3.95 1 7.88 2.09 11.68 3.22c0.53 0.16 0.83 0.71 0.67 1.24c-0.13 0.43-0.53 0.71-0.96 0.71zm-23.39-5.95c-0.07 0-0.14-0.01-0.21-0.02c-3.86-0.82-7.83-1.59-11.81-2.29c-0.54-0.1-0.91-0.61-0.81-1.16c0.1-0.54 0.61-0.91 1.16-0.81c4 0.7 7.99 1.48 11.88 2.31c0.54 0.12 0.88 0.65 0.77 1.19c-0.1 0.47-0.51 0.79-0.98 0.79zm-156.24-3.8c-0.49 0-0.92-0.37-0.99-0.87c-0.07-0.55 0.31-1.05 0.86-1.12c3.91-0.52 7.95-1 12.01-1.44c0.57-0.06 1.04 0.34 1.1 0.89c0.06 0.55-0.34 1.04-0.89 1.1c-4.05 0.44-8.08 0.92-11.97 1.43c-0.04 0.01-0.09 0.01-0.13 0.01zm132.47-0.39c-0.05 0-0.09 0-0.14-0.01c-3.91-0.56-7.93-1.06-11.95-1.51c-0.55-0.06-0.94-0.55-0.88-1.1c0.06-0.55 0.54-0.94 1.1-0.88c4.04 0.45 8.09 0.96 12.01 1.52c0.55 0.08 0.93 0.58 0.85 1.13c-0.07 0.5-0.5 0.86-0.99 0.86zm-108.46-2.2c-0.51 0-0.95-0.39-1-0.91c-0.05-0.55 0.36-1.03 0.91-1.08c4.01-0.34 8.06-0.64 12.06-0.9c0.54-0.04 1.03 0.38 1.06 0.93c0.04 0.55-0.38 1.03-0.93 1.06c-3.98 0.25-8.03 0.55-12.02 0.89c-0.03 0-0.06 0-0.09 0zm84.45-0.47c-0.03 0-0.05 0-0.08 0c-3.94-0.32-7.99-0.6-12.03-0.82c-0.55-0.03-0.97-0.5-0.94-1.05c0.03-0.55 0.51-0.97 1.05-0.94c4.06 0.22 8.12 0.5 12.08 0.82c0.55 0.04 0.96 0.53 0.92 1.08c-0.04 0.52-0.48 0.92-1 0.92zm-60.35-1.06c-0.53 0-0.98-0.42-1-0.96c-0.02-0.55 0.41-1.02 0.96-1.04c4.04-0.17 8.11-0.29 12.09-0.37c0.54 0 1.01 0.43 1.02 0.98c0.01 0.55-0.43 1.01-0.98 1.02c-3.97 0.07-8.02 0.2-12.05 0.36c-0.01 0-0.03 0-0.04 0zm36.23-0.26c-0.01 0-0.02 0-0.03 0c-3.97-0.11-8.03-0.18-12.06-0.2c-0.55 0-1-0.45-1-1c0-0.55 0.45-1 1-1h0c4.05 0.02 8.12 0.08 12.1 0.2c0.55 0.02 0.99 0.48 0.97 1.03c-0.02 0.54-0.46 0.97-1 0.97z" />
				<path id="&lt;Path&gt;" class="s44" d="m257.19 634.63c-0.36 0-0.7-0.19-0.88-0.52c-0.97-1.79-1.91-3.57-2.81-5.32c-0.25-0.49-0.06-1.09 0.43-1.35c0.49-0.25 1.09-0.06 1.35 0.43c0.9 1.74 1.83 3.51 2.8 5.29c0.26 0.49 0.08 1.09-0.4 1.36c-0.15 0.08-0.31 0.12-0.48 0.12z" />
			</g>
			<g id="&lt;Group&gt;">
				<g id="&lt;Group&gt;">
					<g id="&lt;Group&gt;">
						<path id="&lt;Path&gt;" class="s45" d="m983.54 703.7c1.52 2.39 2.47 6.94 2.85 13.65c0.05 0.94-0.69 1.73-1.63 1.73h-17.82c-0.72 0-1.23-0.7-1-1.38c1.04-3.09 4.2-10.62 11.25-14.93l6.35 0.93z" />
						<path id="&lt;Path&gt;" class="s46" d="m984.31 696.89l-1.01 8.45c-0.09 0.73-0.66 1.31-1.39 1.4c-0.97 0.11-2.39 0.19-3.77-0.04c-1.25-0.21-2.15-1.32-2.15-2.59v-8.16l8.32 0.94z" />
						<path id="&lt;Path&gt;" class="s47" d="m939.45 702.77c2.27 3.53 3.39 7.73 3.34 12.58c-0.02 1.71-1.45 3.08-3.17 3.08h-27.67c-1.3 0-1.82-1.67-0.76-2.41c5.24-3.68 15.53-10.55 22.97-13.25h5.29z" />
						<path id="&lt;Path&gt;" class="s48" d="m942.3 693.64l-2.15 10.44c-0.24 1.17-1.38 1.95-2.55 1.69c-0.71-0.16-1.54-0.46-2.43-1.02c-0.85-0.53-1.28-1.54-1.1-2.52l2.22-12.64l6.01 4.05z" />
						<path id="&lt;Path&gt;" class="s49" d="m980.36 548.54c4.98 4.39 7.94 9.23 8.88 14.52c0.94 5.29-0.39 50.88-3.99 136.79c-4.98 0.83-8.76 0.47-11.33-1.09c-3.05-55.75-5.73-90.07-8.04-102.95c-12.14 57.75-19.9 91.84-23.26 102.28c-4.8 0.58-7.97 0.42-9.52-0.49c3.18-74.86 6.77-118.95 10.77-132.26l36.49-16.79z" />
						<path id="&lt;Path&gt;" class="s50" d="m966.11 593.02c-0.06 0-0.13-0.01-0.19-0.02c-0.4-0.1-0.64-0.51-0.54-0.91l3.17-12.18c0.05-0.18 0.16-0.34 0.32-0.44l6.86-4.4c0.35-0.22 0.81-0.12 1.04 0.23c0.22 0.35 0.12 0.81-0.23 1.04l-6.61 4.24l-3.1 11.89c-0.09 0.34-0.39 0.56-0.72 0.56z" />
						<path id="&lt;Path&gt;" class="s51" d="m906.6 474.08c20.98-1.74 34.21-0.44 39.69 3.9l-15.12 23.87c-20.61-0.41-38.3-6.3-53.07-17.69c4.15-4.47 7.03-9.4 8.87-13.24c5.71 2.37 12.29 3.77 19.63 3.16z" />
						<path id="&lt;Path&gt;" class="s52" d="m857.33 427.9c0.04-1.01 1.41-1.28 1.84-0.37l4.02 8.57c0.78 1.66 1.02 3.51 0.71 5.31l-1.41 4.99c-0.42 2.43 0.21 4.92 1.76 6.85c3.69 4.61 11.55 13.03 22.73 17.68c-1.85 3.84-4.73 8.78-8.87 13.24c-8.13-6.26-15.08-14.74-18.89-26.23c-1.82-0.56-3.04-2.28-2.97-4.19l1.09-25.86z" />
						<path id="&lt;Path&gt;" class="s53" d="m896.25 487.92c11.08-11.94 32.18-17.33 44.39-19.54c5.35-0.97 10.63 2.01 12.52 7.11c5.5 14.78 20.45 53.22 23.35 59.83c2.38 5.42 4.86 10.71 6.44 14.02c0.94 1.98 0.12 4.34-1.85 5.29c-10.28 4.95-28.77 10.56-36.27 12.74c-1.65 0.48-3.29-0.76-3.29-2.47c0-1.46-0.4-2.89-1.15-4.14l-28.39-47.32c-17.7 19.62-33.2 21.42-45.1 17.12c2-6.19 3.31-12.39 3.94-18.6c11.73-2.01 20.2-10.03 25.42-24.06z" />
						<path id="&lt;Path&gt;" class="s54" d="m836.8 505.21l5.75-3.36c10.28 7.06 21.24 11.33 28.27 10.13c-0.63 6.21-1.94 12.41-3.94 18.6c-10.46-3.77-20.48-12.23-30.08-25.36z" />
						<path id="&lt;Path&gt;" class="s55" d="m809.5 506.42c2.38-1.3 7.11-2.5 14.19-3.62c8.13-4.76 13.37-7.6 15.71-8.54c2.92-1.17 4.17 3.19 4.51 4.71c0.05 0.21 0.08 0.37 0.1 0.5l-0.45 2.9l-12.32 5.48c-2.64 1.17-5.55 1.59-8.41 1.22l-13.16-1.72c-0.21-0.03-0.38-0.19-0.42-0.4c-0.04-0.21 0.06-0.42 0.25-0.52z" />
						<path id="&lt;Path&gt;" class="s56" d="m923.84 446.46l9.44 23.02c-7.23 5-13.75 7.27-19.56 6.79l-4.71-20.7l14.84-9.11z" />
						<g id="&lt;Group&gt;">
							<path id="&lt;Path&gt;" class="s57" d="m924.41 436.73l-9.63 21.7l-13.71-3.48c4.41-15.92 6.68-23.98 6.83-24.18c2.41-3.42 7.92-1.43 16.52 5.97z" />
							<path id="&lt;Path&gt;" class="s58" d="m919.09 438.53c-0.88-1.42-3.08-4.35-6.03-4.12c-3.89 0.29-10.5-1.36-10.13-5.68c0.37-4.32 4.11-10.11 10.1-8.24c3.38 1.05 4.07 3.51 4.04 5.46c-0.02 1.01 0.83 1.86 1.84 1.77c0.75-0.06 1.18 0.25 1.43 0.67c0.44 0.73 1.31 1.07 2.11 0.78c1.98-0.72 5.21-1.21 7.66 1.83c2.41 2.99 0.86 5.4-0.58 6.76c-0.73 0.68-0.74 1.82-0.04 2.52c3.37 3.37 0.97 6.18-0.28 7.28c-0.36 0.31-0.82 0.46-1.29 0.42c-1.44-0.13-4.86-0.19-6.26 1.92c-1.49 2.24-5.49 10.9-6.8 13.76c-0.27 0.59-0.83 0.97-1.48 1.02c-4.74 0.33-10.42-0.58-13.1-1.09c-0.89-0.17-1.51-0.98-1.42-1.88c0.44-4.44 1.71-9.35 2.31-11.52c0.24-0.87 1.1-1.41 1.99-1.26c1.98 0.35 4.13 2.27 6.44 4.42c2.55 2.36 4.7-0.26 5.27-1.07c0.09-0.13 0.16-0.27 0.22-0.42l4.17-11.82c0.18-0.5 0.12-1.05-0.16-1.5z" />
							<path id="&lt;Path&gt;" class="s59" d="m920.08 454.18c0.65-5 2.01-7.62 4.09-7.87c3.12-0.37 6.15 2.2 3.05 6.4c-2.57 3.49-4.95 3.98-7.14 1.46z" />
						</g>
					</g>
				</g>
				<g id="&lt;Group&gt;">
					<path id="&lt;Path&gt;" class="s60" d="m785.47 291.64c60.06 0 108.74 48.69 108.74 108.74c0 60.06-48.69 108.74-108.74 108.74c-60.06 0-108.74-48.69-108.74-108.74c0-60.06 48.69-108.74 108.74-108.74z" />
					<g id="&lt;Group&gt;" style="opacity: .8">
						<g id="&lt;Group&gt;">
							<g id="&lt;Group&gt;">
								<path id="&lt;Compound Path&gt;" fill-rule="evenodd" class="s5" d="m785.47 506.21c-58.35 0-105.83-47.47-105.83-105.83c0-58.35 47.47-105.83 105.83-105.83c58.35 0 105.83 47.47 105.83 105.83c0 58.35-47.47 105.83-105.83 105.83zm0-209.66c-57.25 0-103.83 46.58-103.83 103.83c0 57.25 46.58 103.83 103.83 103.83c57.25 0 103.83-46.58 103.83-103.83c0-57.25-46.58-103.83-103.83-103.83z" />
							</g>
							<g id="&lt;Group&gt;">
								<path id="&lt;Compound Path&gt;" fill-rule="evenodd" class="s5" d="m697.13 400.38c0-48.71 39.63-88.34 88.34-88.34c48.71 0 88.34 39.63 88.34 88.34c0 48.71-39.63 88.34-88.34 88.34c-48.71 0-88.34-39.63-88.34-88.34zm5.45 0c0 45.71 37.19 82.89 82.89 82.89c45.71 0 82.89-37.19 82.89-82.89c0-45.71-37.19-82.89-82.89-82.89c-45.71 0-82.89 37.19-82.89 82.89z" />
							</g>
						</g>
						<path id="&lt;Compound Path&gt;" fill-rule="evenodd" class="s5" d="m810 384.1v-5.96c0-4.13-3.23-8.15-7.36-8.15h-11.64v26h11.64c11.14 0 20.36 9.59 20.36 20.72v5.9c0 11.14-9.23 19.38-20.36 19.38h-11.64v8.91c0 1.84-2.24 3.33-5 3.33c-2.76 0-5-1.49-5-3.33v-8.91h-11.49c-11.14 0-20.51-8.24-20.51-19.38v-0.51c0-1.1 1.2-2.11 2.3-2.11h8.74c1.1 0 1.97 1.01 1.97 2.11v0.51c0 4.13 3.38 7.38 7.51 7.38h11.49v-21h-11.49c-11.14 0-20.51-8.83-20.51-19.96v-10.89c0-11.14 9.37-20.15 20.51-20.15h11.49v-8.14c0-1.84 2.24-3.33 5-3.33c2.76 0 5 1.49 5 3.33v8.14h11.64c11.14 0 20.36 9.01 20.36 20.15v5.96c0 1.1-1.06 1.9-2.15 1.9h-8.74c-1.1 0-2.11-0.8-2.11-1.9zm-19 24.9v21h11.64c4.13 0 7.36-3.25 7.36-7.38v-5.9c0-4.13-3.23-7.72-7.36-7.72h-11.64zm-10-39h-11.49c-4.13 0-7.51 4.02-7.51 8.15v10.89c0 4.13 3.38 6.96 7.51 6.96h11.49v-26z" />
					</g>
				</g>
			</g>
		</g>
	</g>
</svg>