<svg version="1.2" baseProfile="tiny-ps" xmlns="http://www.w3.org/2000/svg" viewBox="0 0 3710 3710" width="3710" height="3710">
	<title>19197384-ai</title>
	<defs>
		<linearGradient id="grd1" gradientUnits="userSpaceOnUse"  x1="2519.9" y1="4184.1" x2="612.1" y2="2514.9">
			<stop offset="0" stop-color="#b37cff"  />
			<stop offset="1" stop-color="#f895e7"  />
		</linearGradient>
		<linearGradient id="grd2" gradientUnits="userSpaceOnUse"  x1="667.5" y1="476.2" x2="1801.1" y2="801.1">
			<stop offset="0" stop-color="#a737d5"  />
			<stop offset="1" stop-color="#ef497a"  />
		</linearGradient>
		<linearGradient id="grd3" gradientUnits="userSpaceOnUse"  x1="93.7" y1="2321.4" x2="493.7" y2="806.8">
			<stop offset="0" stop-color="#ce1567"  />
			<stop offset="1" stop-color="#7a1dbc"  />
		</linearGradient>
		<linearGradient id="grd4" gradientUnits="userSpaceOnUse"  x1="2239.3" y1="1336.3" x2="2239.3" y2="1065.9">
			<stop offset="0" stop-color="#b37cff"  />
			<stop offset="1" stop-color="#f895e7"  />
		</linearGradient>
		<linearGradient id="grd5" gradientUnits="userSpaceOnUse"  x1="1949.9" y1="1042" x2="1933" y2="1020.4">
			<stop offset="0" stop-color="#b37cff"  />
			<stop offset="1" stop-color="#f895e7"  />
		</linearGradient>
		<linearGradient id="grd6" gradientUnits="userSpaceOnUse"  x1="2028.1" y1="792.5" x2="2016.8" y2="778.1">
			<stop offset="0" stop-color="#b37cff"  />
			<stop offset="1" stop-color="#f895e7"  />
		</linearGradient>
		<linearGradient id="grd7" gradientUnits="userSpaceOnUse"  x1="2342.2" y1="940.4" x2="2342.2" y2="654.1">
			<stop offset="0" stop-color="#b37cff"  />
			<stop offset="1" stop-color="#f895e7"  />
		</linearGradient>
		<linearGradient id="grd8" gradientUnits="userSpaceOnUse"  x1="2613.6" y1="1004.4" x2="2596.6" y2="982.7">
			<stop offset="0" stop-color="#b37cff"  />
			<stop offset="1" stop-color="#f895e7"  />
		</linearGradient>
		<linearGradient id="grd9" gradientUnits="userSpaceOnUse"  x1="2282.6" y1="1252.8" x2="2282.6" y2="740.5">
			<stop offset="0" stop-color="#b37cff"  />
			<stop offset="1" stop-color="#f895e7"  />
		</linearGradient>
		<linearGradient id="grd10" gradientUnits="userSpaceOnUse"  x1="2866.1" y1="1340" x2="2858.1" y2="1329.8">
			<stop offset="0" stop-color="#b37cff"  />
			<stop offset="1" stop-color="#f895e7"  />
		</linearGradient>
		<linearGradient id="grd11" gradientUnits="userSpaceOnUse"  x1="2674.4" y1="1420.1" x2="2674.4" y2="1291.8">
			<stop offset="0" stop-color="#b37cff"  />
			<stop offset="1" stop-color="#f895e7"  />
		</linearGradient>
		<linearGradient id="grd12" gradientUnits="userSpaceOnUse"  x1="2782.1" y1="1154.4" x2="2782.1" y2="964.6">
			<stop offset="0" stop-color="#b37cff"  />
			<stop offset="1" stop-color="#f895e7"  />
		</linearGradient>
		<linearGradient id="grd13" gradientUnits="userSpaceOnUse"  x1="2914.9" y1="1198.2" x2="2902" y2="1181.8">
			<stop offset="0" stop-color="#b37cff"  />
			<stop offset="1" stop-color="#f895e7"  />
		</linearGradient>
		<linearGradient id="grd14" gradientUnits="userSpaceOnUse"  x1="2693.7" y1="1364.6" x2="2693.7" y2="1021.8">
			<stop offset="0" stop-color="#b37cff"  />
			<stop offset="1" stop-color="#f895e7"  />
		</linearGradient>
		<linearGradient id="grd15" gradientUnits="userSpaceOnUse"  x1="3272" y1="977.9" x2="3114.4" y2="2869.3">
			<stop offset="0" stop-color="#2b3582"  />
			<stop offset="1" stop-color="#150e42"  />
		</linearGradient>
		<linearGradient id="grd16" gradientUnits="userSpaceOnUse"  x1="-655.7" y1="1964.5" x2="3155.3" y2="-213.3">
			<stop offset="0" stop-color="#53d8ff"  />
			<stop offset=".2" stop-color="#4db9fd"  />
			<stop offset="1" stop-color="#3840f7"  />
		</linearGradient>
		<linearGradient id="grd17" gradientUnits="userSpaceOnUse"  x1="3279.6" y1="2529.9" x2="3265.9" y2="3814.5">
			<stop offset="0" stop-color="#2b3582"  />
			<stop offset="1" stop-color="#150e42"  />
		</linearGradient>
		<linearGradient id="grd18" gradientUnits="userSpaceOnUse"  x1="2850.5" y1="3184.7" x2="2680.4" y2="3184.7">
			<stop offset="0" stop-color="#53d8ff"  />
			<stop offset="1" stop-color="#3840f7"  />
		</linearGradient>
		<linearGradient id="grd19" gradientUnits="userSpaceOnUse"  x1="2850.4" y1="3125.1" x2="2683.8" y2="3125.1">
			<stop offset="0" stop-color="#2b3582"  />
			<stop offset="1" stop-color="#150e42"  />
		</linearGradient>
		<linearGradient id="grd20" gradientUnits="userSpaceOnUse"  x1="2834.7" y1="3082.8" x2="2786.3" y2="3082.8">
			<stop offset="0" stop-color="#f9b776"  />
			<stop offset="1" stop-color="#f47960"  />
		</linearGradient>
		<linearGradient id="grd21" gradientUnits="userSpaceOnUse"  x1="3155.4" y1="3219.8" x2="3091.1" y2="3219.8">
			<stop offset="0" stop-color="#53d8ff"  />
			<stop offset="1" stop-color="#3840f7"  />
		</linearGradient>
		<linearGradient id="grd22" gradientUnits="userSpaceOnUse"  x1="3156.4" y1="3097.6" x2="3063.5" y2="3097.6">
			<stop offset="0" stop-color="#2b3582"  />
			<stop offset="1" stop-color="#150e42"  />
		</linearGradient>
		<linearGradient id="grd23" gradientUnits="userSpaceOnUse"  x1="3105.1" y1="3053.1" x2="3048.4" y2="3053.1">
			<stop offset="0" stop-color="#f9b776"  />
			<stop offset="1" stop-color="#f47960"  />
		</linearGradient>
		<linearGradient id="grd24" gradientUnits="userSpaceOnUse"  x1="3081.6" y1="2324.8" x2="3109.7" y2="3203.6">
			<stop offset="0" stop-color="#ce1567"  />
			<stop offset="1" stop-color="#7a1dbc"  />
		</linearGradient>
		<linearGradient id="grd25" gradientUnits="userSpaceOnUse"  x1="3147.2" y1="1600.9" x2="2836.3" y2="2526.8">
			<stop offset="0" stop-color="#ce1567"  />
			<stop offset="1" stop-color="#7a1dbc"  />
		</linearGradient>
		<linearGradient id="grd26" gradientUnits="userSpaceOnUse"  x1="2268.2" y1="1906" x2="2497" y2="2203.6">
			<stop offset="0" stop-color="#f9b776"  />
			<stop offset="1" stop-color="#f47960"  />
		</linearGradient>
		<linearGradient id="grd27" gradientUnits="userSpaceOnUse"  x1="2369.1" y1="2110.8" x2="3117.7" y2="2998">
			<stop offset="0" stop-color="#fdf53f"  />
			<stop offset="1" stop-color="#d93c65"  />
		</linearGradient>
		<linearGradient id="grd28" gradientUnits="userSpaceOnUse"  x1="2390.4" y1="1382.3" x2="2919.5" y2="2544.9">
			<stop offset="0" stop-color="#fdf53f"  />
			<stop offset="1" stop-color="#d93c65"  />
		</linearGradient>
		<linearGradient id="grd29" gradientUnits="userSpaceOnUse"  x1="2868.4" y1="2044.3" x2="2844.9" y2="1921">
			<stop offset="0" stop-color="#f9b776"  />
			<stop offset="1" stop-color="#f47960"  />
		</linearGradient>
		<linearGradient id="grd30" gradientUnits="userSpaceOnUse"  x1="2708.4" y1="1892.5" x2="2839.8" y2="1993.1">
			<stop offset="0" stop-color="#f9b776"  />
			<stop offset="1" stop-color="#f47960"  />
		</linearGradient>
		<linearGradient id="grd31" gradientUnits="userSpaceOnUse"  x1="2775" y1="1669.5" x2="2643.1" y2="1839.2">
			<stop offset="0" stop-color="#2b3582"  />
			<stop offset="1" stop-color="#150e42"  />
		</linearGradient>
		<linearGradient id="grd32" gradientUnits="userSpaceOnUse"  x1="2774.3" y1="1834.6" x2="2880" y2="1915.5">
			<stop offset="0" stop-color="#f9b776"  />
			<stop offset="1" stop-color="#f47960"  />
		</linearGradient>
		<linearGradient id="grd33" gradientUnits="userSpaceOnUse"  x1="2594.4" y1="2220.1" x2="2694.4" y2="2370">
			<stop offset="0" stop-color="#f9b776"  />
			<stop offset="1" stop-color="#f47960"  />
		</linearGradient>
		<linearGradient id="grd34" gradientUnits="userSpaceOnUse"  x1="2881" y1="2395.5" x2="2659.6" y2="2468.2">
			<stop offset="0" stop-color="#2b3582"  />
			<stop offset="1" stop-color="#150e42"  />
		</linearGradient>
		<linearGradient id="grd35" gradientUnits="userSpaceOnUse"  x1="2724" y1="2352.8" x2="2564.7" y2="2521.2">
			<stop offset="0" stop-color="#2b3582"  />
			<stop offset="1" stop-color="#150e42"  />
		</linearGradient>
		<linearGradient id="grd36" gradientUnits="userSpaceOnUse"  x1="2480.9" y1="2256.6" x2="2414.8" y2="2356.3">
			<stop offset="0" stop-color="#53d8ff"  />
			<stop offset="1" stop-color="#3840f7"  />
		</linearGradient>
	</defs>
	<style>
		tspan { white-space:pre }
		.s0 { opacity: .3;fill: url(#grd1) } 
		.s1 { fill: url(#grd2) } 
		.s2 { mix-blend-mode: soft-light;fill: #ffffff } 
		.s3 { fill: url(#grd3) } 
		.s4 { fill: url(#grd4) } 
		.s5 { fill: url(#grd5) } 
		.s6 { fill: url(#grd6) } 
		.s7 { fill: url(#grd7) } 
		.s8 { fill: url(#grd8) } 
		.s9 { fill: url(#grd9) } 
		.s10 { opacity: .6;fill: #ffffff } 
		.s11 { fill: url(#grd10) } 
		.s12 { fill: url(#grd11) } 
		.s13 { fill: url(#grd12) } 
		.s14 { fill: url(#grd13) } 
		.s15 { fill: url(#grd14) } 
		.s16 { fill: url(#grd15) } 
		.s17 { fill: url(#grd16) } 
		.s18 { fill: #ffffff } 
		.s19 { fill: url(#grd17) } 
		.s20 { fill: url(#grd18) } 
		.s21 { fill: url(#grd19) } 
		.s22 { fill: url(#grd20) } 
		.s23 { fill: url(#grd21) } 
		.s24 { fill: url(#grd22) } 
		.s25 { fill: url(#grd23) } 
		.s26 { fill: url(#grd24) } 
		.s27 { fill: url(#grd25) } 
		.s28 { fill: url(#grd26) } 
		.s29 { fill: url(#grd27) } 
		.s30 { fill: url(#grd28) } 
		.s31 { fill: url(#grd29) } 
		.s32 { fill: url(#grd30) } 
		.s33 { fill: url(#grd31) } 
		.s34 { fill: url(#grd32) } 
		.s35 { fill: #f8a570 } 
		.s36 { fill: url(#grd33) } 
		.s37 { fill: url(#grd34) } 
		.s38 { fill: url(#grd35) } 
		.s39 { fill: url(#grd36) } 
	</style>
	<g id="Illustration">
		<g id="&lt;Group&gt;">
			<path id="&lt;Path&gt;" class="s0" d="m3120.39 2319.41c-264.97 623.89-970.77 973.39-1582.85 879.12c-99.6-15.34-372.65-61.04-614.39-276.63c-465.38-415.02-564.9-1236.82-189.5-1815.97c273.23-421.51 763.02-660.46 1228.42-648.5c100.25 2.57 484.44 18.44 822.07 296.85c49.59 40.89 158.97 138.06 257.55 292.22c231.48 361.99 251.38 866.32 78.69 1272.91z" />
			<g id="&lt;Group&gt;">
				<path id="&lt;Path&gt;" class="s1" d="m594.86 485.18c-4.55-14.04 11.82-25.58 23.65-16.75c120.13 89.59 415.64 365.2 411.28 906.03c-5.47 678.55 161.71 906.92 352.18 1036.16c-164.19-28.64-305.66-119.88-424.41-273.73c-437.31-566.58-281.83-1402.08-362.71-1651.71z" />
				<path id="&lt;Path&gt;" class="s2" d="m703.7 679.96c2.06-0.72 4.31 0.36 5.04 2.42c25.33 72.06 47.89 145.12 68.5 218.74c20.26 73.72 38.19 148.12 53.84 223.02c3.88 18.73 7.6 37.5 11.23 56.29c3.44 18.82 6.92 37.64 10.03 56.53c6.44 37.73 12.21 75.59 17.29 113.53c10.37 75.88 17.62 152.18 24.31 228.15c6.59 75.96 12.82 151.74 26.51 225.7c6.84 36.96 15.75 73.38 27.37 108.85c11.65 35.46 25.99 69.94 42.82 103.23c34.4 66.18 77.01 128.94 127.56 183.87c25.17 27.62 52.38 53.35 81.29 77.08c7.13 6.05 14.67 11.61 21.99 17.44c7.53 5.56 14.97 11.26 22.65 16.62c15.19 10.98 30.9 21.29 46.74 31.44l0.05 0.03c6.68 4.29 8.78 13.14 4.66 19.99c-4.19 6.97-13.25 9.23-20.22 5.04c-66.26-39.84-127.86-88.81-180.8-145.88c-26.4-28.6-50.64-59.14-72.72-91.09c-10.96-16.03-21.63-32.25-31.57-48.91c-10.23-16.46-19.55-33.64-28.51-50.92c-35.89-69.34-58.61-145.07-72.03-221.19c-13.52-76.26-19.18-152.87-25.22-228.88c-5.62-76.09-11.49-151.85-20.61-227.3c-8.78-75.5-20.76-150.6-34.16-225.46c-13.68-74.81-29.7-149.24-47.98-223.14c-17.89-74.01-38.48-147.37-60.53-220.33c-0.6-2.01 0.47-4.17 2.47-4.87z" />
			</g>
			<g id="&lt;Group&gt;">
				<g id="&lt;Group&gt;">
					<path id="&lt;Path&gt;" class="s3" d="m923.68 2526.66c-8.84 25.72-41.07 34.05-61.5 16.1c-112.73-99.02-406.15-407.8-386.32-925.39c16.74-437.08-15.71-675.68-37.95-782.97c-4.7-22.69 22.29-38.19 39.55-22.73c190.4 170.58 766.5 783.14 446.23 1714.99z" />
					<path id="&lt;Path&gt;" class="s2" d="m886.87 2527.48c-0.56 0.38-1.15 0.71-1.8 0.99c-5.38 2.33-11.63-0.13-13.97-5.51c-2.65-6.1-264.64-616.73-268.81-1225.51c-0.04-5.86 4.68-10.64 10.55-10.69c5.86-0.04 10.65 4.68 10.69 10.55c4.14 604.36 264.42 1211.15 267.05 1217.2c2.06 4.74 0.39 10.15-3.72 12.97z" />
				</g>
			</g>
			<g id="&lt;Group&gt;">
				<g id="&lt;Group&gt;">
					<g id="&lt;Group&gt;" style="opacity: .3">
						<path id="&lt;Compound Path&gt;" class="s4" d="m2523.56 1228.22c2.67 3.39 2.4 8.32-0.77 11.4c-6.92 6.72-14.23 13.24-21.74 19.38c-3.65 2.99-9.03 2.45-12.02-1.2c-0.04-0.04-0.07-0.09-0.1-0.13c-2.87-3.65-2.3-8.94 1.31-11.89c7.13-5.83 14.08-12.03 20.65-18.41c3.38-3.29 8.79-3.21 12.08 0.17c0.21 0.22 0.41 0.44 0.59 0.68zm-58.81 45.57c0.21 0.26 0.4 0.54 0.58 0.83c2.46 4.02 1.19 9.28-2.83 11.74c-8.27 5.05-16.83 9.8-25.45 14.12c-4.22 2.11-9.33 0.41-11.46-3.82c-2.11-4.22-0.4-9.35 3.82-11.46c8.2-4.1 16.33-8.61 24.19-13.42c3.73-2.28 8.52-1.36 11.16 2zm-67.38 31.49c0.59 0.75 1.06 1.61 1.38 2.56c1.5 4.47-0.9 9.31-5.37 10.82c-9.16 3.08-18.58 5.8-27.98 8.09c-4.58 1.11-9.2-1.7-10.32-6.28c-1.11-4.58 1.7-9.2 6.28-10.32c8.93-2.17 17.86-4.75 26.57-7.68c3.52-1.18 7.27 0.05 9.44 2.81zm-72.75 15.63c0.97 1.24 1.61 2.75 1.78 4.43c0.47 4.69-2.96 8.88-7.66 9.34c-9.63 0.95-19.41 1.5-29.08 1.63c-4.71 0.06-8.59-3.71-8.65-8.43c-0.06-4.72 3.71-8.59 8.43-8.65c9.18-0.12 18.48-0.64 27.63-1.55c3.01-0.3 5.82 1.01 7.56 3.23zm-74.41-0.98c1.36 1.73 2.06 3.99 1.76 6.34c-0.59 4.68-4.86 8-9.54 7.41c-9.58-1.2-19.24-2.83-28.71-4.85c-4.61-0.98-7.56-5.51-6.58-10.13c0.98-4.61 5.51-7.56 10.13-6.58c9 1.92 18.18 3.46 27.28 4.61c2.32 0.29 4.31 1.49 5.65 3.19zm-72.33-17.42c1.76 2.24 2.37 5.32 1.32 8.2c-1.61 4.43-6.51 6.72-10.94 5.12c-9.09-3.3-18.15-7.02-26.93-11.08c-4.28-1.98-6.15-7.05-4.17-11.34c1.98-4.28 7.05-6.15 11.33-4.17c8.34 3.85 16.95 7.4 25.58 10.53c1.56 0.56 2.84 1.53 3.8 2.74zm-209.48-233.39c0.73 0.93 1.28 2.02 1.58 3.25c2.18 8.91 4.78 17.85 7.73 26.56c1.51 4.47-0.88 9.32-5.35 10.82c-4.47 1.51-9.32-0.88-10.83-5.35c-3.1-9.18-5.85-18.59-8.14-27.97c-1.12-4.58 1.68-9.21 6.27-10.33c3.36-0.82 6.74 0.47 8.75 3.02zm142.85 200.39c2.19 2.78 2.49 6.76 0.47 9.91c-2.55 3.97-7.84 5.11-11.8 2.56c-8.13-5.23-16.13-10.89-23.78-16.8c-3.72-2.9-4.42-8.25-1.53-11.98c2.88-3.73 8.25-4.42 11.98-1.53c7.26 5.62 14.86 10.98 22.58 15.95c0.82 0.53 1.52 1.17 2.09 1.9zm-117.13-130.58c0.35 0.44 0.66 0.93 0.92 1.45c4.12 8.2 8.66 16.34 13.47 24.18c2.47 4.02 1.21 9.28-2.81 11.75c-4.02 2.47-9.29 1.23-11.75-2.81c-5.06-8.25-9.84-16.81-14.18-25.44c-2.12-4.21-0.42-9.35 3.79-11.47c3.69-1.86 8.09-0.78 10.54 2.34zm59.54 83.53c2.67 3.39 2.4 8.31-0.75 11.39c-3.38 3.29-8.78 3.23-12.08-0.15c-6.74-6.91-13.28-14.21-19.42-21.69c-0.04-0.04-0.08-0.09-0.11-0.14c-2.86-3.64-2.3-8.92 1.29-11.88c3.65-2.99 9.03-2.47 12.02 1.18c5.84 7.11 12.04 14.04 18.45 20.6c0.21 0.22 0.42 0.45 0.6 0.69z" />
						<path id="&lt;Path&gt;" class="s5" d="m1959.47 1009.82c1.04 1.32 1.7 2.96 1.81 4.77c0.26 4.4 0.61 8.86 1.05 13.27c0.47 4.69-2.96 8.88-7.65 9.35c-4.69 0.47-8.89-2.95-9.35-7.65c-0.46-4.64-0.84-9.33-1.11-13.96c-0.28-4.71 3.31-8.75 8.02-9.03c2.9-0.17 5.55 1.13 7.22 3.25z" />
					</g>
					<g id="&lt;Group&gt;" style="opacity: .3">
						<path id="&lt;Path&gt;" class="s6" d="m2046.85 764.54c2.55 3.24 2.44 7.94-0.44 11.07c-2.99 3.23-5.96 6.59-8.82 9.96c-3.05 3.6-8.44 4.03-12.04 0.98c-3.61-3.07-4.03-8.44-0.98-12.04c3.02-3.55 6.15-7.08 9.29-10.49c3.2-3.47 8.6-3.68 12.07-0.48c0.34 0.31 0.65 0.65 0.93 1z" />
						<path id="&lt;Compound Path&gt;" class="s7" d="m2552.66 784.02c2.43 3.09 4.82 6.23 7.16 9.42c2.79 3.8 1.97 9.15-1.83 11.94c-3.8 2.79-9.18 1.96-11.94-1.83c-5.41-7.37-11.1-14.5-16.99-21.28c-3.09-3.57-2.72-8.95 0.84-12.05c3.56-3.1 8.96-2.72 12.05 0.84c3.64 4.19 7.25 8.55 10.72 12.96zm31.28 47.52c0.29 0.37 0.56 0.78 0.8 1.22c4.55 8.37 8.79 17.03 12.61 25.74c1.89 4.32-0.07 9.36-4.39 11.25c-4.32 1.89-9.37-0.07-11.25-4.39c-3.63-8.27-7.66-16.49-11.98-24.45c-2.25-4.14-0.71-9.33 3.43-11.58c3.71-2.01 8.26-0.99 10.78 2.22zm-73.77-92.27c2.49 3.16 2.46 7.75-0.29 10.89c-3.11 3.55-8.5 3.91-12.05 0.81c-6.79-5.94-13.93-11.66-21.23-17.02c-3.8-2.8-4.62-8.14-1.83-11.94c2.79-3.8 8.14-4.62 11.94-1.83c7.68 5.64 15.2 11.67 22.36 17.92c0.41 0.36 0.77 0.75 1.1 1.16zm101.4 160.08c0.67 0.85 1.19 1.85 1.5 2.95c2.59 9.16 4.82 18.54 6.63 27.88c0.9 4.63-2.13 9.11-6.76 10.01c-4.63 0.9-9.11-2.12-10.01-6.76c-1.72-8.87-3.84-17.78-6.3-26.48c-1.29-4.54 1.35-9.26 5.89-10.54c3.43-0.97 6.97 0.3 9.04 2.94zm-161.5-201.83c2.04 2.6 2.47 6.26 0.8 9.35c-2.25 4.15-7.43 5.69-11.58 3.44c-7.93-4.3-16.16-8.31-24.45-11.94c-4.32-1.89-6.3-6.92-4.4-11.25c1.89-4.32 6.92-6.29 11.24-4.4c8.73 3.82 17.39 8.04 25.74 12.56c1.06 0.57 1.95 1.34 2.65 2.22zm-67.8-27.55c1.63 2.08 2.28 4.88 1.51 7.61c-1.29 4.54-6.01 7.18-10.54 5.89c-8.7-2.46-17.61-4.59-26.48-6.32c-4.63-0.9-7.65-5.38-6.75-10.02c0.9-4.63 5.39-7.65 10.02-6.75c9.33 1.82 18.7 4.06 27.86 6.65c1.8 0.51 3.3 1.56 4.38 2.93zm-72.19-12.11c1.24 1.58 1.93 3.6 1.81 5.76c-0.26 4.71-4.3 8.31-9.01 8.04c-9.04-0.51-18.2-0.65-27.22-0.4c-4.71 0.13-8.64-3.59-8.77-8.31c-0.13-4.71 3.59-8.64 8.31-8.77c9.5-0.26 19.14-0.11 28.65 0.42c2.55 0.14 4.77 1.39 6.23 3.25zm-73.11 3.92c0.86 1.09 1.46 2.41 1.71 3.88c0.77 4.65-2.38 9.05-7.03 9.82c-8.93 1.48-17.89 3.35-26.64 5.57c-4.57 1.16-9.22-1.61-10.38-6.17c-1.16-4.57 1.61-9.22 6.18-10.38c9.22-2.34 18.66-4.32 28.06-5.87c3.19-0.53 6.25 0.78 8.11 3.15zm-70.5 19.88c0.48 0.61 0.89 1.31 1.2 2.07c1.78 4.37-0.33 9.35-4.69 11.13c-8.36 3.4-16.69 7.2-24.75 11.3c-4.2 2.14-9.35 0.45-11.48-3.74c-2.14-4.2-0.46-9.35 3.74-11.49c8.49-4.32 17.25-8.32 26.06-11.9c3.61-1.47 7.64-0.29 9.93 2.63zm-64.36 34.86c0.11 0.14 0.21 0.28 0.31 0.43c2.68 3.88 1.72 9.2-2.16 11.88c-5.47 3.79-10.89 7.79-16.12 11.9c-1.89 1.49-3.76 2.99-5.61 4.51c-3.64 3-9.03 2.47-12.02-1.17c-3.11-3.63-2.47-9.02 1.17-12.02c1.95-1.6 3.91-3.18 5.9-4.75c5.49-4.32 11.2-8.53 16.96-12.52c3.73-2.58 8.8-1.79 11.57 1.73z" />
						<path id="&lt;Path&gt;" class="s8" d="m2623.61 971.8c1.05 1.33 1.71 2.99 1.81 4.81c0.25 4.62 0.41 9.33 0.46 14c0.06 4.72-3.71 8.59-8.43 8.65c-4.72 0.06-8.59-3.71-8.65-8.43c-0.06-4.44-0.21-8.91-0.44-13.29c-0.26-4.71 3.35-8.73 8.07-8.99c2.89-0.16 5.52 1.14 7.18 3.25z" />
					</g>
					<g id="&lt;Group&gt;">
						<path id="&lt;Compound Path&gt;" class="s9" d="m2525.93 1080.87c-0.37 1.66-1.76 2.91-3.45 3.1l-48.28 5.44c-9.87 20.43-23.06 39.43-39.4 56.11l11.24 47.23c0.39 1.66-0.31 3.38-1.74 4.29l-49.2 31.23c-1.44 0.91-3.3 0.81-4.63-0.25l-37.96-30.27c-22.05 7.69-44.86 11.54-67.54 11.78l-25.47 41.37c-0.89 1.45-2.61 2.17-4.27 1.8l-56.87-12.7c-1.66-0.37-2.91-1.76-3.1-3.45l-5.44-48.27c-20.43-9.86-39.44-23.06-56.11-39.4l-47.23 11.24c-1.66 0.39-3.38-0.31-4.29-1.74l-31.23-49.2c-0.91-1.44-0.81-3.3 0.25-4.63l30.27-37.96c-7.69-22.05-11.54-44.86-11.77-67.54l-41.37-25.47c-1.45-0.89-2.17-2.61-1.8-4.27l12.7-56.87c0.37-1.66 1.76-2.9 3.45-3.1l48.28-5.44c9.86-20.43 23.06-39.43 39.4-56.11l-11.24-47.23c-0.39-1.66 0.31-3.38 1.74-4.29l49.2-31.23c1.44-0.91 3.3-0.81 4.63 0.25l37.96 30.27c22.05-7.69 44.86-11.54 67.54-11.78l25.47-41.37c0.89-1.45 2.61-2.17 4.27-1.8l56.87 12.7c1.66 0.37 2.91 1.76 3.1 3.45l5.44 48.28c20.43 9.86 39.43 23.06 56.11 39.4l47.23-11.24c1.66-0.39 3.38 0.31 4.29 1.74l31.23 49.2c0.91 1.44 0.81 3.3-0.25 4.63l-30.27 37.96c7.69 22.05 11.54 44.86 11.77 67.54l41.37 25.47c1.45 0.89 2.17 2.61 1.8 4.27l-12.7 56.87z" />
						<path id="&lt;Compound Path&gt;" fill-rule="evenodd" class="s10" d="m2328.64 960.46c17.65 22.44 16.68 55.11-3.52 76.45c-22.2 23.46-59.35 24.48-82.81 2.28c-11.37-10.75-17.86-25.29-18.29-40.93c-0.43-15.64 5.25-30.51 16.01-41.87c22.2-23.46 59.35-24.48 82.81-2.28c2.11 2 4.05 4.13 5.8 6.35zm-81.42 63.89c1.36 1.73 2.86 3.38 4.49 4.92c17.98 17.02 46.47 16.24 63.49-1.75c17.02-17.99 16.25-46.47-1.75-63.49c-17.98-17.02-46.47-16.24-63.49 1.75c-8.25 8.71-12.61 20.12-12.28 32.11c0.27 9.75 3.61 18.94 9.53 26.46z" />
						<path id="&lt;Path&gt;" class="s10" d="m2394.39 907.21c3.03 3.85 5.89 7.88 8.55 12.08c0.84 1.32 1.66 2.66 2.45 4c3.92 6.64 7.31 13.59 10.12 20.73c0.04 0.1 0.08 0.19 0.11 0.29c0.11 0.28 0.21 0.55 0.32 0.83c0.21 0.54 0.41 1.08 0.61 1.62c0.53 1.42 0.04 2.97-1.09 3.87c-0.28 0.22-0.59 0.39-0.94 0.52c-1.77 0.65-3.73-0.26-4.39-2.02c-3.36-9.11-7.72-17.92-12.97-26.18c-26.05-41.05-70.44-63.55-115.79-63.63c-25.22-0.05-50.74 6.84-73.57 21.33c-4 2.54-7.85 5.26-11.52 8.16c-24.74 19.47-41.89 46.62-48.84 77.76c-7.99 35.76-1.57 72.5 18.07 103.44c40.57 63.89 125.49 82.84 189.35 42.3c3.94-2.5 7.73-5.19 11.38-8.06c15.78-12.42 28.67-28.15 37.68-46.11c0.23-0.46 0.56-0.85 0.94-1.15c1.01-0.79 2.42-0.98 3.64-0.37c1.68 0.85 2.37 2.9 1.52 4.59c-9.46 18.86-22.99 35.38-39.56 48.42c-3.82 3.01-7.81 5.83-11.94 8.46c-67.05 42.57-156.24 22.62-198.79-44.4c-20.62-32.48-27.35-71.04-18.97-108.59c7.3-32.69 25.3-61.2 51.27-81.63c3.86-3.04 7.9-5.9 12.1-8.56c32.48-20.62 71.05-27.36 108.59-18.97c32.69 7.3 61.21 25.31 81.64 51.29z" />
					</g>
				</g>
				<g id="&lt;Group&gt;">
					<g id="&lt;Group&gt;" style="opacity: .3">
						<path id="&lt;Path&gt;" class="s11" d="m2880.64 1318.12c1.41 1.79 1.54 4.37 0.15 6.32c-2.6 3.65-5.34 7.27-8.15 10.76c-1.83 2.27-5.15 2.62-7.42 0.79c-2.28-1.82-2.62-5.15-0.79-7.42c2.68-3.32 5.3-6.77 7.77-10.25c1.69-2.37 4.98-2.92 7.36-1.24c0.42 0.3 0.78 0.65 1.09 1.04z" />
						<path id="&lt;Compound Path&gt;" class="s12" d="m2854.17 1348.88c1.65 2.1 1.48 5.15-0.48 7.05c-5.54 5.36-11.43 10.49-17.48 15.26c-1.28 1-2.57 2-3.87 2.98c-2.33 1.75-5.65 1.1-7.39-1.04c-1.75-2.33-1.29-5.63 1.04-7.39c1.25-0.94 2.48-1.89 3.7-2.85c5.78-4.55 11.39-9.44 16.68-14.55c2.1-2.03 5.43-1.97 7.46 0.13c0.13 0.13 0.24 0.27 0.35 0.41zm-43.75 32.95c0.15 0.2 0.3 0.41 0.43 0.63c1.46 2.53 0.59 5.75-1.93 7.21c-8.09 4.68-16.55 8.89-25.13 12.52c-2.68 1.14-5.78-0.13-6.91-2.8c-1.14-2.68 0.12-5.78 2.8-6.91c8.19-3.47 16.25-7.49 23.97-11.95c2.3-1.33 5.18-0.73 6.78 1.3zm-50.43 21.35c0.41 0.53 0.73 1.14 0.93 1.82c0.8 2.8-0.84 5.72-3.64 6.51c-8.98 2.54-18.22 4.55-27.45 5.97c-2.88 0.44-5.57-1.53-6.01-4.42c-0.44-2.88 1.54-5.57 4.41-6.01c8.81-1.35 17.61-3.26 26.18-5.69c2.12-0.6 4.3 0.19 5.58 1.82zm-54.14 8.3c0.68 0.86 1.09 1.93 1.13 3.11c0.08 2.91-2.21 5.34-5.12 5.42c-9.35 0.27-18.79-0.05-28.07-0.93c-2.9-0.28-5.02-2.86-4.75-5.75c0.27-2.9 2.85-5.03 5.75-4.75c8.84 0.84 17.85 1.14 26.77 0.89c1.74-0.05 3.3 0.75 4.3 2.02zm-54.53-5.18c0.94 1.2 1.36 2.8 1.01 4.4c-0.63 2.84-3.44 4.64-6.29 4.01c-9.12-2.02-18.2-4.61-26.99-7.72c-2.75-0.97-4.19-3.98-3.22-6.73c0.97-2.75 3.99-4.19 6.73-3.22c8.39 2.96 17.05 5.44 25.75 7.36c1.24 0.27 2.28 0.96 3.01 1.89zm-51.61-18.25c1.22 1.55 1.51 3.73 0.57 5.62c-1.3 2.6-4.47 3.66-7.07 2.36c-8.35-4.17-16.53-8.9-24.29-14.07c-2.43-1.63-3.08-4.89-1.47-7.32c1.61-2.42 4.89-3.08 7.31-1.47c7.4 4.92 15.19 9.43 23.15 13.41c0.72 0.36 1.32 0.86 1.79 1.46zm-45.57-30.31c1.53 1.94 1.52 4.76-0.15 6.7c-1.9 2.21-5.23 2.46-7.44 0.56c-7.05-6.07-13.81-12.67-20.1-19.6c-1.92-2.2-1.79-5.5 0.37-7.45c2.16-1.96 5.49-1.79 7.45 0.36c5.99 6.62 12.44 12.91 19.17 18.7c0.26 0.23 0.5 0.48 0.71 0.74zm-51.16-63.95c0.19 0.24 0.36 0.5 0.51 0.78c3.63 6.78 7.69 13.48 12.07 19.92c0.66 0.98 1.32 1.93 1.99 2.87c1.68 2.38 1.11 5.67-1.27 7.35c-2.38 1.69-5.75 1.15-7.35-1.26c-0.71-1.01-1.41-2.02-2.1-3.05c-4.58-6.73-8.83-13.75-12.63-20.87c-1.37-2.57-0.4-5.76 2.17-7.14c2.29-1.22 5.08-0.59 6.63 1.39z" />
					</g>
					<g id="&lt;Group&gt;" style="opacity: .3">
						<path id="&lt;Compound Path&gt;" class="s13" d="m2872.29 1048.97c1.78 2.26 1.41 5.55-0.83 7.36c-2.26 1.83-5.59 1.48-7.42-0.79c-5.51-6.82-11.49-13.37-17.76-19.45c-2.06-2.03-2.15-5.37-0.11-7.46c2.03-2.09 5.37-2.14 7.46-0.11c6.57 6.38 12.84 13.24 18.62 20.39c0.01 0.02 0.03 0.04 0.04 0.06zm15.67 21.97c0.12 0.15 0.23 0.3 0.33 0.47c4.88 7.78 9.33 15.94 13.23 24.24c1.24 2.64 0.11 5.78-2.53 7.02c-2.64 1.24-5.78 0.09-7.02-2.53c-3.73-7.93-7.97-15.71-12.62-23.14c-1.55-2.47-0.8-5.72 1.67-7.27c2.31-1.45 5.3-0.89 6.94 1.2zm-54.34-59.46c1.45 1.84 1.54 4.49 0.06 6.44c-1.75 2.32-5.06 2.78-7.39 1.03c-7-5.29-14.38-10.19-21.95-14.58c-2.52-1.48-3.38-4.69-1.91-7.21c1.46-2.52 4.69-3.38 7.21-1.91c7.92 4.6 15.66 9.75 23 15.29c0.37 0.28 0.7 0.6 0.97 0.95zm77.23 108.25c0.37 0.47 0.67 1.01 0.87 1.62c2.86 8.73 5.22 17.73 6.99 26.74c0.56 2.86-1.3 5.63-4.16 6.2c-2.85 0.56-5.63-1.3-6.19-4.16c-1.69-8.59-3.94-17.17-6.66-25.49c-0.91-2.77 0.6-5.75 3.37-6.66c2.16-0.71 4.46 0.06 5.79 1.75zm-123.81-135.27c1.15 1.47 1.49 3.51 0.71 5.34c-1.15 2.68-4.25 3.92-6.93 2.78c-8.05-3.45-16.39-6.43-24.8-8.88c-2.8-0.81-4.41-3.74-3.59-6.54c0.81-2.8 3.74-4.41 6.54-3.59c8.82 2.57 17.56 5.7 26 9.31c0.84 0.36 1.54 0.92 2.07 1.59zm-51.71-15.06c0.88 1.12 1.31 2.6 1.06 4.12c-0.47 2.87-3.18 4.83-6.06 4.35c-8.66-1.42-17.48-2.32-26.21-2.69c-2.91-0.12-5.17-2.59-5.05-5.49c0.12-2.91 2.58-5.17 5.49-5.05c9.16 0.39 18.4 1.33 27.48 2.82c1.35 0.22 2.5 0.94 3.29 1.94zm-53.83-2.24c0.62 0.79 1.03 1.76 1.11 2.84c0.23 2.9-1.94 5.45-4.84 5.68c-8.75 0.69-17.52 1.93-26.09 3.68c-2.85 0.58-5.64-1.26-6.22-4.12c-0.58-2.86 1.26-5.64 4.12-6.22c8.98-1.83 18.19-3.13 27.36-3.86c1.83-0.14 3.51 0.66 4.56 2z" />
						<path id="&lt;Path&gt;" class="s14" d="m2921.31 1172.84c0.63 0.8 1.03 1.79 1.11 2.88c0.32 4.5 0.52 9.04 0.57 13.47c0.04 2.91-2.3 5.31-5.21 5.34c-2.91 0.03-5.3-2.3-5.34-5.21c-0.05-4.23-0.24-8.56-0.54-12.85c-0.21-2.91 1.98-5.43 4.88-5.64c1.81-0.13 3.48 0.67 4.53 2z" />
					</g>
					<g id="&lt;Group&gt;">
						<path id="&lt;Compound Path&gt;" class="s15" d="m2856.54 1249.58c-0.25 1.11-1.18 1.94-2.31 2.07l-32.3 3.64c-6.6 13.67-15.43 26.39-26.36 37.55l7.52 31.61c0.26 1.11-0.2 2.26-1.17 2.87l-32.92 20.9c-0.96 0.61-2.21 0.54-3.1-0.17l-25.4-20.25c-14.75 5.14-30.02 7.72-45.2 7.88l-17.04 27.68c-0.6 0.97-1.74 1.45-2.86 1.21l-38.06-8.5c-1.11-0.25-1.94-1.18-2.07-2.31l-3.64-32.3c-13.67-6.6-26.39-15.43-37.55-26.36l-31.61 7.52c-1.11 0.26-2.26-0.2-2.87-1.17l-20.9-32.92c-0.61-0.96-0.54-2.21 0.17-3.1l20.25-25.4c-5.14-14.75-7.72-30.02-7.88-45.2l-27.68-17.04c-0.97-0.6-1.46-1.74-1.21-2.86l8.5-38.06c0.25-1.11 1.18-1.94 2.31-2.07l32.3-3.64c6.6-13.67 15.43-26.39 26.36-37.55l-7.52-31.61c-0.26-1.11 0.2-2.26 1.17-2.87l32.92-20.9c0.96-0.61 2.21-0.54 3.1 0.17l25.4 20.25c14.75-5.14 30.02-7.72 45.2-7.88l17.04-27.68c0.6-0.97 1.74-1.45 2.86-1.21l38.06 8.5c1.11 0.25 1.94 1.18 2.07 2.31l3.64 32.3c13.67 6.6 26.39 15.43 37.55 26.36l31.61-7.52c1.11-0.26 2.26 0.2 2.87 1.17l20.9 32.92c0.61 0.96 0.54 2.21-0.17 3.1l-20.25 25.4c5.14 14.75 7.72 30.02 7.88 45.2l27.68 17.04c0.97 0.6 1.45 1.74 1.21 2.86l-8.5 38.06z" />
						<path id="&lt;Compound Path&gt;" fill-rule="evenodd" class="s10" d="m2725.11 1168.62c5.26 6.69 8.23 14.85 8.47 23.51c0.29 10.65-3.58 20.78-10.91 28.52c-15.12 15.98-40.42 16.67-56.4 1.55c-15.97-15.17-16.67-40.43-1.55-56.41c7.33-7.74 17.23-12.17 27.88-12.46c10.65-0.29 20.79 3.58 28.53 10.91c1.44 1.37 2.78 2.83 3.99 4.37zm-54.49 42.74c0.88 1.12 1.85 2.18 2.91 3.18c11.76 11.12 30.37 10.61 41.49-1.15c5.39-5.69 8.24-13.14 8.02-20.98c-0.22-7.84-3.48-15.12-9.16-20.51c-5.69-5.39-13.15-8.24-20.98-8.02c-7.84 0.22-15.12 3.47-20.51 9.17c-10.12 10.69-10.61 27.06-1.76 38.31z" />
						<path id="&lt;Path&gt;" class="s10" d="m2770.93 1131.61c2.06 2.62 4.01 5.37 5.84 8.25c3.63 5.71 6.68 11.79 9.07 18.1c0.11 0.28 0.21 0.57 0.32 0.85c0.81 2.2 0.07 4.59-1.68 5.97c-0.42 0.33-0.91 0.61-1.44 0.81c-2.73 1.01-5.76-0.4-6.77-3.12c-2.18-5.91-5-11.61-8.4-16.94l0 0c-0.19-0.29-0.38-0.59-0.56-0.87c-8.14-12.55-19.1-22.6-31.91-29.56c-6.95-3.77-14.46-6.63-22.36-8.47c-0.06-0.02-0.13-0.03-0.19-0.05c-0.2-0.04-0.39-0.09-0.59-0.13c-23.15-5.17-46.93-1.02-66.96 11.7c-2.59 1.64-5.08 3.41-7.46 5.28c-16.01 12.6-27.11 30.18-31.62 50.34c-5.17 23.15-1.01 46.93 11.7 66.96c12.71 20.01 32.47 33.91 55.62 39.08c23.15 5.17 46.93 1.02 66.96-11.7c2.55-1.62 5.01-3.36 7.36-5.21c10.22-8.04 18.56-18.22 24.39-29.85c0.36-0.72 0.86-1.32 1.45-1.78c1.55-1.22 3.74-1.52 5.63-0.57c2.6 1.31 3.66 4.47 2.35 7.08c-6.53 13.01-15.86 24.41-27.29 33.4c-2.64 2.08-5.39 4.02-8.24 5.83c-22.41 14.23-49.02 18.87-74.92 13.09c-25.9-5.79-48.01-21.29-62.22-43.72c-14.23-22.41-18.88-49.01-13.08-74.92c5.03-22.55 17.46-42.22 35.37-56.32c2.66-2.09 5.44-4.07 8.34-5.91c43.39-27.54 100.19-17.16 131.31 22.39z" />
					</g>
				</g>
			</g>
			<g id="&lt;Group&gt;">
				<g id="&lt;Group&gt;">
					<path id="&lt;Path&gt;" class="s16" d="m597.67 1257.07c-0.73-30.7 11.18-60.36 32.95-82.06c21.76-21.69 51.48-33.52 82.21-32.73l2353.62 60.9c52.84-3.59 81.67 44.18 81.67 68.65l-20.04 1383.96c0 24.47-20.04 44.49-44.53 44.49h-2408.27c-24.49 0-44.53-20.02-44.53-44.49l-33.07-1398.74z" />
					<path id="&lt;Path&gt;" class="s17" d="m641.16 1275.77c-0.54-21.59 7.87-42.47 23.16-57.72c15.29-15.25 36.17-23.57 57.76-22.99l2255.73 60.52c40.18-1.6 106.47 25.57 108.69 101.17l-18.91 1256.38c0 23.17-18.96 42.13-42.13 42.13h-2308.62c-23.17 0-42.13-18.96-42.13-42.13l-33.55-1337.35z" />
					<g id="&lt;Group&gt;">
						<path id="&lt;Path&gt;" class="s18" d="m3042.66 2016.26c-0.03 0-0.06 0-0.09 0c-3.41-0.05-6.14-2.85-6.08-6.27l1.49-101.89c0.05-3.38 2.8-6.08 6.17-6.08c0.03 0 0.06 0 0.09 0c3.41 0.05 6.14 2.85 6.08 6.27l-1.49 101.89c-0.05 3.38-2.8 6.08-6.17 6.08z" />
						<path id="&lt;Path&gt;" class="s18" d="m3046.32 1766.57c-0.03 0-0.06 0-0.09 0c-3.41-0.05-6.14-2.86-6.08-6.27l5.73-390.24c-0.11-23.18-7.14-41.69-20.91-54.88c-25.71-24.63-66.52-23.37-68.24-23.29l-720.98-19.33c-3.41-0.09-6.1-2.93-6.01-6.34c0.09-3.41 2.71-6.31 6.34-6l720.55 19.33c4.48-0.27 47.94-1.02 76.88 26.71c16.28 15.6 24.6 37.09 24.72 63.86l-5.73 390.36c-0.05 3.38-2.8 6.08-6.17 6.08z" />
					</g>
					<path id="&lt;Path&gt;" class="s19" d="m435.37 2809.53v-110.29c0-3.11 2.54-5.65 5.65-5.65h2827.94c3.11 0 5.65 2.54 5.65 5.65v110.29c0 3.11-2.54 5.65-5.65 5.65h-2827.94c-3.11 0-5.65-2.54-5.65-5.65z" />
				</g>
			</g>
			<g id="&lt;Group&gt;">
				<g id="&lt;Group&gt;" style="opacity: .6">
					<g id="&lt;Group&gt;" style="opacity: .8">
						<path id="&lt;Path&gt;" class="s18" d="m2315 1725.03l-91.78 296.75c-3.34 10.8-13.83 18.6-25.74 18.58l-581.51-0.88l42.47 136.79l529.17 5.7c12.79 0.14 23.18 8.42 23.18 20.51c0 12.1-10.39 20.12-23.18 19.95l-545.07-7.32c-9.44-0.13-17.76-6.23-20.54-15.09l-164.87-526.83l-91.12 2.15c-11.43 0.27-20.69-7.22-20.69-18.63c0-11.41 9.26-19.36 20.69-19.66l106.62-2.8c9.23-0.24 17.4 5.32 20.12 14l19.62 62.31l776.57-16.29c8.53-0.18 16.57 2.44 21.7 8.74c5.13 6.31 6.75 14.28 4.35 22.02z" />
						<path id="&lt;Compound Path&gt;" fill-rule="evenodd" class="s18" d="m1804.31 2328.83c0 44.08-36.91 78.97-82.03 77.79c-44.85-1.18-81.13-37.6-81.13-81.2c0-43.6 36.28-78.5 81.13-77.81c45.12 0.7 82.03 37.14 82.03 81.22zm-43.86-0.92c0-20.51-17.15-37.51-38.17-37.9c-20.96-0.39-37.97 15.9-37.97 36.31c0 20.4 17.01 37.4 37.97 37.89c21.02 0.49 38.17-15.79 38.17-36.3z" />
						<path id="&lt;Compound Path&gt;" fill-rule="evenodd" class="s18" d="m2171.74 2336.51c0 45.17-38.75 80.89-86.11 79.65c-47.07-1.24-85.15-38.57-85.15-83.23c0-44.66 38.08-80.4 85.15-79.67c47.36 0.74 86.11 38.08 86.11 83.25zm-46.05-0.96c0-21.01-18-38.44-40.06-38.85c-22-0.41-39.85 16.27-39.85 37.18c0 20.9 17.85 38.33 39.85 38.84c22.06 0.52 40.06-16.16 40.06-37.17z" />
					</g>
				</g>
				<path id="&lt;Compound Path&gt;" fill-rule="evenodd" class="s18" d="m1865.91 2612.34c-373.55 0-677.46-303.9-677.46-677.45c0-373.55 303.91-677.46 677.46-677.46c373.55 0 677.46 303.91 677.46 677.46c0 373.55-303.91 677.45-677.46 677.45zm0-1300.45c-343.52 0-623 279.48-623 623c0 343.52 279.48 623 623 623c343.52 0 623-279.48 623-623c0-343.52-279.48-623-623-623z" />
				<path id="&lt;Path&gt;" class="s18" d="m1413.98 2392.46l-37.53-39.45l931.13-885.77l37.53 39.45l-931.13 885.77z" />
			</g>
			<g id="&lt;Group&gt;">
				<path id="&lt;Path&gt;" class="s20" d="m2683.76 3186.46c29.4 2.54 80.42 6.67 120.65 8.44c24.18 1.06 38.1-1.3 46.12-4.51c-0.01 0.9-0.04 1.76-0.07 2.55c-0.19 4.23-3.63 7.62-7.9 7.86c-76.01 4.24-136.45 1.47-157.97 0.16c-4.45-0.27-7.1-5.11-4.83-8.9c1.14-1.9 2.52-3.76 4.01-5.59z" />
				<path id="&lt;Path&gt;" class="s21" d="m2804.41 3194.9c-40.22-1.77-91.25-5.9-120.65-8.44c19.27-23.64 59.49-43.43 120.65-59.36h25.91c17.82 25.69 20.4 50.15 20.21 63.29c-8.02 3.21-21.94 5.58-46.12 4.51z" />
				<path id="&lt;Path&gt;" class="s22" d="m2834.69 3084.79l-2.42 47.98c-0.26 5.2-4.15 9.56-9.36 10.31c-5.18 0.74-12.11 0.83-19.46-1.61c-4.52-1.51-7.88-5.32-8.72-9.97l-8.38-46.71h48.34z" />
				<g id="&lt;Group&gt;">
					<path id="&lt;Path&gt;" class="s23" d="m3135.42 3241.81c12.75-2.3 18.52-10.86 20.94-20.01c0.02 0.08 0.03 0.16 0.05 0.25c1.88 9.65-2.47 19.66-11.17 24.42c-10.51 5.75-22 6.73-30.92 6.26c-9.57-0.51-18.35-5.63-23.18-13.82l-0.07-0.12c9.61 6.14 23.09 6.87 44.35 3.03z" />
					<path id="&lt;Path&gt;" class="s24" d="m3075.31 3099.58h21.37c32.55-0.86 52.99 87.87 59.68 122.22c-2.42 9.15-8.19 17.71-20.94 20.01c-21.26 3.83-34.74 3.11-44.35-3.03c-17.58-29.91-26.3-73.71-30.49-99.27c-3.18-19.38 1.73-32.69 14.73-39.93z" />
				</g>
				<path id="&lt;Path&gt;" class="s25" d="m3093.93 3055.04l11.87 47.19c1.45 5.79-1.31 11.77-6.66 14.52c-6.64 3.41-15.98 6.99-24.57 5.95c-4.04-0.49-7.39-3.33-8.73-7.14l-17.42-49.65l45.52-10.87z" />
				<path id="&lt;Path&gt;" class="s26" d="m2856.36 2420.09c34.66 50.62 116.94 265.94 246.84 645.96c-16.54 10.89-34.8 17.52-54.78 19.9c-38.31-105.2-117.79-263.37-238.44-474.5c14.98 90.57 25.66 253.96 32.06 490.18c-21.28 7.74-41.69 7.18-61.21-1.7c1.16-2.43-33.6-224.58-104.29-666.46l179.83-13.39z" />
				<path id="&lt;Path&gt;" class="s27" d="m2803.08 2606.53l-38.91-62.15l-27.84-5.6c-1.69-0.34-2.79-1.99-2.45-3.69c0.34-1.69 1.99-2.79 3.69-2.45l29.16 5.87c0.84 0.17 1.58 0.68 2.04 1.41l39.63 63.29c0.92 1.46 0.47 3.4-0.99 4.32c-0.51 0.32-1.09 0.48-1.66 0.48c-1.04 0-2.06-0.52-2.66-1.47z" />
				<path id="&lt;Path&gt;" class="s28" d="m2189.93 1784.43c47.7 10.52 86.06 22.48 115.07 35.87c8.64 3.99 15.54 10.97 19.46 19.57c13.02 28.51 51.96 100.01 127.48 134.13c-10.88 14.44-28.39 44.46-36.02 94.93c-45.36-33.76-84.52-90.14-103.32-182.6c-9.54 5.19-20.27 4.89-32.17-0.89c-9.44-4.58-20.33-11.08-28.51-16.19c-8.15-5.09-14.22-13.01-16.57-22.26c-3.11-12.21-1.28-22.95-1.28-34.47l-36.78-11.39c-7.37-2.78-9.83-8.35-7.37-16.69z" />
				<path id="&lt;Path&gt;" class="s29" d="m2415.93 2068.93c7.63-50.47 25.14-80.49 36.02-94.93c46.91 21.2 107.94 27.97 185.65 1.04c7.16-2.48 14.64-3.94 22.21-4.38c41.37-2.43 177.7-6.85 290.5 30.42c23.74 7.84 42.97 25.39 52.88 48.14c30.52 70.03 79.92 229.51-57.23 310.03c-10.54-26.16-22.7-47.19-33.1-62.64c22.09-37.26 28.63-88.14-10.57-154.4c-28.58 77.17-41.99 189.77-44.79 239.61c-0.92 16.41 1.96 32.78 8.39 47.93l0.7 1.65c1.38 3.24-0.52 6.97-3.98 7.74c-77.21 17.34-157.52 12.63-181.51 10.65c-4.28-0.35-7.84-3.42-8.82-7.56c-37.55-158.2-37.63-266.12-28.44-334.34c-35.12 7.85-142.52 24.6-227.92-38.96z" />
				<path id="&lt;Path&gt;" class="s30" d="m2643.28 2112.12c-1.71-0.23-2.92-1.8-2.69-3.52c9.02-68.18 27.1-97.29 27.87-98.5c0.93-1.46 2.86-1.88 4.32-0.97c1.46 0.93 1.9 2.86 0.97 4.32c-0.18 0.29-18.13 29.35-26.95 95.96c-0.21 1.57-1.55 2.72-3.1 2.72c-0.14 0-0.27-0.01-0.41-0.03z" />
				<path id="&lt;Path&gt;" class="s31" d="m2834.24 1878.51c5.21 55.06 10.1 90.73 14.69 107.02c1.04 3.71-0.57 7.61-3.93 9.54c-11.67 6.67-39.67 17.55-77.96-1.22c-6.2-3.04-9.93-9.51-9.64-16.35l3.37-79.81l73.48-19.18z" />
				<g id="&lt;Group&gt;">
					<path id="&lt;Path&gt;" class="s32" d="m2858.46 1809.64c3.72 12.62-2.71 34.35-19.32 65.17c-15.9 30.01-45.24 47.36-80.07 41.29c-34.83-6.07-28.34-25.61-26.66-55.73c1.12-20.08 10.01-49.25 26.66-87.51c62.53 11.9 95.66 24.16 99.38 36.79z" />
					<path id="&lt;Path&gt;" class="s33" d="m2827.24 1853.24l-1.98-0.87c-2.52-1.11-3.6-4.12-2.34-6.57c4.91-9.49 14.49-31.24 2.12-36.31c-15.94-6.54-79.08-19.41-92.71-41.82c-13.09-21.53-1.49-49.33 15.94-57.23c1.17-0.53 2.54-0.11 3.14 1.02l1.45 2.75c0.99 1.88 3.77 1.6 4.37-0.45c0.57-1.96 3.18-2.34 4.26-0.61c4.19 6.7 15.49 17.57 45.73 23.15c42.97 7.93 71.38 25.32 72.08 55.01c0.04 1.89 2.05 2.94 3.66 1.95c3.17-1.93 8.25-2.84 15.03 2.86c11.8 9.92 6.97 35.66-18.9 56.83c-1.23 1.01-1.22 2.92 0.11 3.79c4.69 3.05 11.68 10.32-6.43 20c-18.74 10.02-32.73 9.19-38.12 8.3c-1.34-0.22-2.2-1.52-1.91-2.85l5.75-26.1c0.33-1.48-0.8-2.88-2.31-2.88h-8.96z" />
					<path id="&lt;Path&gt;" class="s34" d="m2826.16 1858.74c6.35-24.44 15.01-33.23 25.97-26.38c16.44 10.28-8.53 41.08-21.74 42.45l-4.22-16.07z" />
				</g>
				<path id="&lt;Path&gt;" class="s35" d="m2291.1 1876.65c-7.15-8.79-27.23-32.48-34.19-36.41c-5.07-2.86-7.95-6.04-8.81-9.69c-0.73-3.1 0.03-6.25 2.32-9.65c0.71-1.05 1.96-1.57 3.21-1.32l31.23 6.26c0.53 0.11 1.01 0.35 1.42 0.69l16.6 14.25c1.31 1.13 1.46 3.1 0.34 4.42c-1.13 1.32-3.11 1.46-4.41 0.34l-15.99-13.71l-28.21-5.65c-0.49 1.11-0.63 2.08-0.42 2.95c0.43 1.81 2.43 3.78 5.8 5.68c9.25 5.22 33.26 34.58 35.97 37.91c1.09 1.34 0.89 3.32-0.45 4.4c-0.58 0.47-1.28 0.7-1.97 0.7c-0.91 0-1.82-0.39-2.43-1.15z" />
				<path id="&lt;Path&gt;" class="s36" d="m2827.37 2398.94l-110.43 1.37l38.65-36.38c9.61-9.04 24.27-10.51 35.36-3.31c6.49 4.21 13.53 9.93 19.63 17.5c45.92-16.78 80.02-43.95 102.28-81.5c10.4 15.45 22.56 36.48 33.1 62.64c-29.94 17.57-68.74 31.39-118.59 39.69z" />
				<g id="&lt;Group&gt;">
					<path id="&lt;Path&gt;" class="s37" d="m2815.47 2413.18c-0.21 0.01-0.43 0.02-0.64 0.01l-280.31-0.3c-6.93-0.01-12.54-5.57-12.53-12.43c0.01-6.86 5.65-12.52 12.56-12.4l280.31 0.3c6.93 0.01 12.54 5.57 12.53 12.43c-0.01 6.64-5.29 12.06-11.92 12.39z" />
					<path id="&lt;Path&gt;" class="s38" d="m2282.53 2161.36h233.45c17.22 0 32.9 9.83 40.24 25.24l107.92 226.43h-290.11c-11.1 0-21.07-6.71-25.15-16.92l-83.69-209.52c-4.84-12.11 4.18-25.23 17.34-25.23z" />
					<path id="&lt;Path&gt;" class="s39" d="m2446.99 2277.46c5.06 15.55 1.32 30.65-8.35 33.73c-9.67 3.08-21.61-7.03-26.67-22.58c-5.06-15.55-1.32-30.65 8.35-33.73c9.67-3.08 21.61 7.03 26.67 22.58z" />
				</g>
			</g>
		</g>
	</g>
</svg>